<svg width="320" height="321" viewBox="0 0 320 321" fill="none" xmlns="http://www.w3.org/2000/svg">
<path d="M0 320H320" stroke="#263238" stroke-linejoin="round"/>
<path d="M133.481 215.581C133.481 215.581 133.706 247.711 133.706 256.198C133.706 264.685 133.481 301.557 133.481 301.557" stroke="#263238" stroke-width="3" stroke-linecap="round" stroke-linejoin="round"/>
<path d="M150.243 223.81L143.314 217.127L162.756 219.699L145.551 213.267L163.206 209.667H143.314L158.733 196.301L141.302 206.325L151.361 186.535L137.954 204.27L142.646 178.306L133.931 202.474L133.037 175.482L131.251 202.984L121.741 178.687L128.345 205.298L114.118 187.456L126.559 209.416L108.95 194.969L125.44 213.267L106.773 201.538L123.872 214.813L108.407 212.491L123.429 217.385L111.398 219.692L123.872 219.182L116.5 224.837L133.931 219.441L150.243 223.81Z" fill="#1F75FE"/>
<path d="M126.77 247.97C126.77 247.97 126.109 254.653 126.552 257.225C127.021 260.193 127.243 263.206 127.214 266.223C127.214 269.564 127.439 269.823 127.439 272.137C127.439 274.451 127.214 294.105 127.214 295.901V302.067" stroke="#263238" stroke-width="3" stroke-linecap="round" stroke-linejoin="round"/>
<path d="M127.432 269.564C127.432 269.564 128.326 263.909 129.219 261.336C130.112 258.763 130.781 259.54 131.006 256.457C131.231 253.374 131.231 252.088 131.667 251.052C132.025 250.137 132.323 249.194 132.561 248.228L133.011 246.173" stroke="#263238" stroke-width="3" stroke-linecap="round" stroke-linejoin="round"/>
<path d="M143.314 254.653L136.386 247.97L155.828 250.542L138.622 244.118L156.278 240.518H136.386L151.811 227.151L134.381 237.176L144.432 217.385L131.025 235.121L135.717 209.157L127.002 233.317L126.109 206.325L124.322 233.834L117.394 208.898L121.417 236.148L109.128 215.84L119.63 240.259L103.504 228.141L118.512 244.118L101.876 236.285L116.944 245.656L101.333 244.103L116.5 248.228L105.959 250.991L116.944 250.025L109.572 255.68L127.002 250.284L143.314 254.653Z" fill="#1F75FE"/>
<path d="M120.656 294.79L115.872 303.924C115.509 304.622 115.272 305.397 115.175 306.202C115.077 307.007 115.12 307.827 115.302 308.613L117.427 317.747C117.579 318.392 117.912 318.961 118.374 319.367C118.835 319.773 119.4 319.992 119.981 319.992H141.766C142.345 319.991 142.909 319.77 143.369 319.364C143.829 318.959 144.161 318.39 144.313 317.747L146.444 308.613C146.625 307.827 146.668 307.007 146.569 306.201C146.47 305.396 146.232 304.622 145.868 303.924L141.091 294.79C140.93 294.481 140.702 294.225 140.429 294.048C140.157 293.87 139.849 293.777 139.536 293.777H122.204C121.892 293.777 121.585 293.87 121.314 294.048C121.042 294.225 120.816 294.481 120.656 294.79Z" fill="white" stroke="#263238" stroke-linejoin="round"/>
<path d="M13.8966 70.3254H101.75C101.943 70.3254 102.128 70.4137 102.265 70.5707C102.401 70.7277 102.478 70.9407 102.478 71.1627V318.607C102.478 318.976 102.35 319.331 102.123 319.592C101.896 319.853 101.588 320 101.267 320H14.3797C14.0585 320 13.7505 319.853 13.5234 319.592C13.2963 319.331 13.1687 318.976 13.1687 318.607V71.1627C13.1687 70.9407 13.2454 70.7277 13.3819 70.5707C13.5184 70.4137 13.7036 70.3254 13.8966 70.3254V70.3254Z" stroke="#263238" stroke-linejoin="round"/>
<path d="M57.8232 196.164V319.741" stroke="#263238" stroke-linejoin="round"/>
<path d="M57.8232 70.0667V191.756" stroke="#263238" stroke-linejoin="round"/>
<path d="M19.0847 196.088H98.3155C98.7928 196.088 99.2507 195.869 99.5882 195.481C99.9258 195.093 100.115 194.566 100.115 194.017C100.115 193.745 100.069 193.476 99.9784 193.225C99.8879 192.974 99.7553 192.745 99.5882 192.553C99.4211 192.361 99.2226 192.208 99.0043 192.104C98.7859 192 98.5518 191.947 98.3155 191.947H19.0847C18.8484 191.947 18.6143 192 18.3959 192.104C18.1775 192.208 17.9791 192.361 17.812 192.553C17.6448 192.745 17.5123 192.974 17.4218 193.225C17.3313 193.476 17.2848 193.745 17.2848 194.017V194.017C17.2848 194.566 17.4744 195.093 17.812 195.481C18.1495 195.869 18.6074 196.088 19.0847 196.088V196.088Z" stroke="#263238" stroke-linejoin="round"/>
<path d="M93.1207 94.3254H67.6766V151.125H93.1207V94.3254Z" stroke="#263238" stroke-linejoin="round"/>
<path d="M91.1288 98.7783H69.675V129.819H91.1288V98.7783Z" stroke="#263238" stroke-linejoin="round"/>
<path d="M72.8912 133.252H69.8406V136.875H72.8912V133.252Z" stroke="#263238" stroke-linejoin="round"/>
<path d="M77.477 133.252H74.4264V136.875H77.477V133.252Z" stroke="#263238" stroke-linejoin="round"/>
<path d="M82.0564 133.252H79.0057V136.875H82.0564V133.252Z" stroke="#263238" stroke-linejoin="round"/>
<path d="M86.6356 133.252H83.585V136.875H86.6356V133.252Z" stroke="#263238" stroke-linejoin="round"/>
<path d="M91.215 133.252H88.1643V136.875H91.215V133.252Z" stroke="#263238" stroke-linejoin="round"/>
<path d="M72.8912 139.075H69.8406V142.698H72.8912V139.075Z" stroke="#263238" stroke-linejoin="round"/>
<path d="M77.477 139.075H74.4264V142.698H77.477V139.075Z" stroke="#263238" stroke-linejoin="round"/>
<path d="M82.0564 139.075H79.0057V142.698H82.0564V139.075Z" stroke="#263238" stroke-linejoin="round"/>
<path d="M86.6356 139.075H83.585V142.698H86.6356V139.075Z" stroke="#263238" stroke-linejoin="round"/>
<path d="M91.215 139.075H88.1643V142.698H91.215V139.075Z" stroke="#263238" stroke-linejoin="round"/>
<path d="M45.5081 137.02H22.8169V174.622H45.5081V137.02Z" stroke="#263238" stroke-linejoin="round"/>
<path d="M41.3921 137.02H26.933V174.622H41.3921V137.02Z" stroke="#263238" stroke-linejoin="round"/>
<path d="M41.3921 137.02H26.933V148.658H41.3921V137.02Z" stroke="#263238" stroke-linejoin="round"/>
<path d="M244.826 47.1931H120.98C118.907 40.1024 117.832 32.676 117.797 25.195L117.738 12.6736C117.739 11.7355 118.064 10.8364 118.641 10.1731C119.218 9.50972 119.999 9.13617 120.815 9.13416H244.985C245.39 9.13415 245.792 9.22645 246.167 9.40575C246.541 9.58505 246.881 9.84781 247.167 10.1789C247.453 10.51 247.68 10.9029 247.833 11.335C247.987 11.767 248.064 12.2297 248.062 12.6965L247.989 25.4006C247.948 32.5535 246.952 39.6568 245.038 46.4624L244.826 47.1931Z" stroke="#263238" stroke-linejoin="round"/>
<path d="M236.825 41.4082H128.981V47.2236H236.825V41.4082Z" stroke="#263238" stroke-linejoin="round"/>
<path d="M214.564 59.4405C215.687 59.4417 216.798 59.1712 217.824 58.6467C218.85 58.1221 219.768 57.3552 220.52 56.3958L218.74 54.1122C218.207 54.8499 217.533 55.4357 216.77 55.824C216.008 56.2123 215.178 56.3925 214.345 56.3505C213.512 56.3084 212.699 56.0454 211.969 55.5818C211.239 55.1183 210.612 54.4668 210.137 53.6783L208.264 55.8782C209.012 56.9808 209.968 57.8742 211.059 58.4912C212.15 59.1082 213.348 59.4327 214.564 59.4405Z" fill="#1F75FE"/>
<path d="M214.564 54.6222C215.169 54.6205 215.764 54.4557 216.303 54.141C216.842 53.8264 217.31 53.3707 217.668 52.8106L215.762 50.3901C215.717 50.7412 215.557 51.0595 215.316 51.2805C215.074 51.5016 214.769 51.6089 214.461 51.5809C214.154 51.5529 213.867 51.3915 213.659 51.1295C213.451 50.8674 213.337 50.5243 213.34 50.1693C213.33 50.0758 213.33 49.9812 213.34 49.8877L211.196 52.4072C211.538 53.0847 212.03 53.6462 212.621 54.0351C213.213 54.4241 213.883 54.6266 214.564 54.6222Z" fill="#1F75FE"/>
<path d="M214.405 48.6622L214.286 48.8069C214.353 48.7868 214.422 48.774 214.491 48.7688L214.405 48.6622Z" fill="#1F75FE"/>
<path d="M224.471 61.4576C223.13 63.0244 221.523 64.2562 219.749 65.0761C217.976 65.896 216.075 66.2864 214.164 66.2228C212.254 66.1593 210.376 65.6431 208.647 64.7066C206.917 63.7701 205.375 62.4335 204.115 60.7802L202.256 62.9724C203.756 64.8936 205.58 66.4436 207.618 67.5278C209.655 68.6121 211.864 69.208 214.108 69.2792C216.352 69.3504 218.585 68.8954 220.672 67.942C222.758 66.9886 224.654 65.5567 226.244 63.7335L224.471 61.4576Z" fill="#1F75FE"/>
<path d="M214.564 64.6089C216.234 64.6097 217.888 64.2255 219.427 63.479C220.966 62.7325 222.359 61.6388 223.524 60.2626L221.744 57.979C220.784 59.1508 219.619 60.0746 218.325 60.6893C217.031 61.3039 215.639 61.5953 214.24 61.5442C212.841 61.4931 211.467 61.1007 210.21 60.3929C208.953 59.6851 207.841 58.6781 206.948 57.4386L205.095 59.6156C206.269 61.1806 207.723 62.4366 209.357 63.2982C210.991 64.1598 212.767 64.6068 214.564 64.6089Z" fill="#1F75FE"/>
<path d="M283.73 267.288H217.304V276.773H283.73V267.288Z" stroke="#263238" stroke-linejoin="round"/>
<path d="M312.622 276.757H188.405V320H312.622V276.757Z" stroke="#263238" stroke-linejoin="round"/>
<path d="M309.313 279.521H191.714V317.237H309.313V279.521Z" stroke="#263238" stroke-linejoin="round"/>
<path d="M230.982 279.345V317.214" stroke="#263238" stroke-linejoin="round"/>
<path d="M269.509 279.345V317.214" stroke="#263238" stroke-linejoin="round"/>
<path d="M214.088 249.758H197.312V276.773H214.088V249.758Z" stroke="#263238" stroke-linejoin="round"/>
<path d="M303.41 249.758H286.635V276.773H303.41V249.758Z" stroke="#263238" stroke-linejoin="round"/>
<path d="M251.774 255.109C250.651 255.11 249.541 255.381 248.515 255.905C247.49 256.43 246.571 257.196 245.818 258.154L247.598 260.438C248.131 259.699 248.805 259.112 249.568 258.724C250.331 258.335 251.162 258.155 251.995 258.198C252.829 258.241 253.642 258.505 254.372 258.97C255.102 259.436 255.728 260.089 256.201 260.879L258.074 258.672C257.326 257.57 256.37 256.676 255.279 256.059C254.188 255.443 252.99 255.118 251.774 255.109Z" fill="#1F75FE"/>
<path d="M251.774 259.935C251.169 259.936 250.573 260.1 250.033 260.413C249.493 260.726 249.024 261.18 248.664 261.739L250.57 264.16C250.615 263.809 250.774 263.49 251.016 263.269C251.257 263.048 251.563 262.941 251.87 262.969C252.178 262.997 252.465 263.158 252.673 263.42C252.881 263.682 252.995 264.026 252.992 264.381C253.002 264.474 253.002 264.569 252.992 264.662L255.136 262.143C254.793 261.468 254.302 260.909 253.712 260.521C253.122 260.134 252.454 259.932 251.774 259.935Z" fill="#1F75FE"/>
<path d="M251.926 265.888L252.045 265.751C251.977 265.759 251.908 265.759 251.84 265.751L251.926 265.888Z" fill="#1F75FE"/>
<path d="M241.868 253.092C243.208 251.527 244.815 250.296 246.588 249.477C248.36 248.658 250.261 248.268 252.17 248.331C254.08 248.395 255.958 248.911 257.686 249.846C259.415 250.782 260.957 252.118 262.216 253.77L264.076 251.578C262.573 249.661 260.748 248.115 258.711 247.034C256.673 245.953 254.466 245.359 252.224 245.288C249.981 245.217 247.749 245.67 245.663 246.62C243.577 247.571 241.68 248.998 240.088 250.816L241.868 253.092Z" fill="#1F75FE"/>
<path d="M251.774 249.941C250.103 249.942 248.448 250.327 246.908 251.075C245.368 251.823 243.974 252.917 242.807 254.295L244.588 256.579C245.547 255.406 246.713 254.482 248.007 253.867C249.301 253.252 250.694 252.961 252.093 253.013C253.493 253.065 254.866 253.459 256.123 254.168C257.38 254.877 258.492 255.886 259.384 257.127L261.237 254.95C260.064 253.383 258.612 252.124 256.98 251.26C255.347 250.396 253.571 249.946 251.774 249.941Z" fill="#1F75FE"/>
<path d="M309.041 25.7964C309.041 26.6696 308.816 27.5232 308.395 28.2492C307.973 28.9752 307.373 29.5411 306.672 29.8752C305.971 30.2094 305.199 30.2968 304.455 30.1264C303.71 29.9561 303.026 29.5356 302.489 28.9182C301.953 28.3008 301.587 27.5141 301.439 26.6577C301.291 25.8013 301.367 24.9137 301.657 24.1069C301.948 23.3002 302.44 22.6107 303.071 22.1256C303.702 21.6405 304.444 21.3816 305.203 21.3816C306.221 21.3816 307.198 21.8467 307.917 22.6747C308.637 23.5026 309.041 24.6255 309.041 25.7964V25.7964Z" stroke="#263238" stroke-linejoin="round"/>
<path d="M314.706 58.4738H295.648V41.1722C295.648 39.7327 295.894 38.3074 296.373 36.9776C296.852 35.6477 297.554 34.4394 298.439 33.4216C299.324 32.4038 300.374 31.5964 301.53 31.0455C302.686 30.4947 303.926 30.2112 305.177 30.2112V30.2112C306.428 30.2112 307.667 30.4947 308.824 31.0455C309.98 31.5964 311.03 32.4038 311.915 33.4216C312.8 34.4394 313.502 35.6477 313.981 36.9776C314.46 38.3074 314.706 39.7327 314.706 41.1722V58.4738Z" stroke="#263238" stroke-linejoin="round"/>
<path d="M305.203 21.3815V0" stroke="#263238" stroke-width="2" stroke-linejoin="round"/>
<path d="M52.9992 25.7964C52.9992 26.6696 52.7741 27.5232 52.3524 28.2492C51.9307 28.9752 51.3312 29.5411 50.6299 29.8752C49.9286 30.2094 49.1569 30.2968 48.4123 30.1264C47.6678 29.9561 46.9839 29.5356 46.4472 28.9182C45.9104 28.3008 45.5448 27.5141 45.3967 26.6577C45.2487 25.8013 45.3247 24.9137 45.6152 24.1069C45.9057 23.3002 46.3976 22.6107 47.0288 22.1256C47.66 21.6405 48.402 21.3816 49.1611 21.3816C50.1791 21.3816 51.1553 21.8467 51.8751 22.6747C52.5949 23.5026 52.9992 24.6255 52.9992 25.7964V25.7964Z" stroke="#263238" stroke-linejoin="round"/>
<path d="M58.6902 58.4738H39.632V41.1722C39.632 39.7327 39.8784 38.3074 40.3573 36.9776C40.8362 35.6477 41.5381 34.4394 42.423 33.4216C43.3078 32.4038 44.3583 31.5964 45.5144 31.0455C46.6706 30.4947 47.9097 30.2112 49.1611 30.2112V30.2112C50.4125 30.2112 51.6516 30.4947 52.8077 31.0455C53.9639 31.5964 55.0143 32.4038 55.8992 33.4216C56.7841 34.4394 57.486 35.6477 57.9649 36.9776C58.4437 38.3074 58.6902 39.7327 58.6902 41.1722V58.4738Z" stroke="#263238" stroke-linejoin="round"/>
<path d="M49.1611 21.3815V0" stroke="#263238" stroke-width="2" stroke-linejoin="round"/>
<path d="M71.7332 55.0562C71.733 53.7649 71.4973 52.488 71.0413 51.308C70.5854 50.1279 69.9193 49.0711 69.0862 48.2056L67.1009 50.2531C67.7434 50.8653 68.2539 51.6403 68.5922 52.5174C68.9306 53.3946 69.0877 54.35 69.0511 55.3087C69.0146 56.2674 68.7854 57.2033 68.3816 58.043C67.9778 58.8827 67.4104 59.6034 66.7238 60.1485L68.6362 62.295C69.5943 61.4359 70.3707 60.3383 70.9071 59.0845C71.4435 57.8308 71.7259 56.4535 71.7332 55.0562Z" fill="#1F75FE"/>
<path d="M67.5377 55.0562C67.5362 54.3598 67.3929 53.6736 67.1194 53.0524C66.8459 52.4311 66.4498 51.8922 65.9627 51.4786L63.8584 53.6708C64.157 53.733 64.4249 53.9206 64.6101 54.1971C64.7954 54.4736 64.8847 54.8194 64.8608 55.1674C64.8369 55.5154 64.7014 55.8408 64.4808 56.0805C64.2601 56.3201 63.9699 56.4569 63.6665 56.4644C63.585 56.4718 63.5031 56.4718 63.4216 56.4644L65.6186 58.923C66.2058 58.5295 66.6925 57.9648 67.0294 57.2859C67.3663 56.607 67.5416 55.8379 67.5377 55.0562Z" fill="#1F75FE"/>
<path d="M62.3563 55.2312L62.4821 55.3682C62.472 55.2899 62.472 55.2104 62.4821 55.1322L62.3563 55.2312Z" fill="#1F75FE"/>
<path d="M73.4868 43.6612C74.8474 45.2037 75.917 47.0523 76.6286 49.0916C77.3402 51.1309 77.6786 53.3171 77.6227 55.5136C77.5668 57.7101 77.1178 59.8698 76.3037 61.8577C75.4896 63.8457 74.328 65.6192 72.8912 67.0675L74.7971 69.214C76.4634 67.4848 77.8072 65.3846 78.7472 63.0405C79.6871 60.6964 80.2037 58.1573 80.2656 55.5768C80.3274 52.9964 79.9333 50.4283 79.1071 48.0282C78.2809 45.6281 77.0397 43.4459 75.4588 41.6136L73.4868 43.6612Z" fill="#1F75FE"/>
<path d="M76.2265 55.0562C76.2261 53.1334 75.8909 51.2302 75.2409 49.4588C74.5908 47.6874 73.6389 46.0837 72.4413 44.7422L70.4561 46.7898C71.4755 47.8945 72.2791 49.2359 72.8135 50.725C73.348 52.2141 73.6011 53.8169 73.556 55.4271C73.511 57.0373 73.1688 58.6181 72.5522 60.0646C71.9356 61.5111 71.0587 62.7903 69.9796 63.8174L71.8722 65.941C73.2351 64.5929 74.3294 62.9228 75.0808 61.0445C75.8322 59.1662 76.2229 57.1238 76.2265 55.0562Z" fill="#1F75FE"/>
<path d="M307.659 100.894H196.988V186.253H307.659V100.894Z" stroke="#263238" stroke-linejoin="round"/>
<path d="M304.654 104.495H199.993V182.645H304.654V104.495Z" stroke="#263238" stroke-linejoin="round"/>
<path d="M251.774 89.1721C250.652 89.1724 249.541 89.4435 248.516 89.9679C247.49 90.4924 246.571 91.2585 245.818 92.2168L247.599 94.5004C248.131 93.7618 248.805 93.1752 249.568 92.7866C250.331 92.398 251.162 92.2181 251.995 92.2608C252.829 92.3036 253.642 92.568 254.372 93.0331C255.102 93.4983 255.728 94.1516 256.201 94.9419L258.074 92.7344C257.326 91.6322 256.37 90.7391 255.279 90.1222C254.188 89.5052 252.99 89.1804 251.774 89.1721Z" fill="#1F75FE"/>
<path d="M251.774 93.9981C251.169 93.999 250.573 94.1626 250.033 94.4758C249.493 94.789 249.024 95.2432 248.664 95.8021L250.57 98.2226C250.615 97.8715 250.774 97.5533 251.016 97.3322C251.257 97.1112 251.563 97.0038 251.87 97.0318C252.178 97.0599 252.465 97.2212 252.673 97.4832C252.881 97.7453 252.995 98.0884 252.992 98.4434C253.002 98.5369 253.002 98.6315 252.992 98.725L255.136 96.2055C254.793 95.5306 254.302 94.9713 253.712 94.5838C253.122 94.1963 252.454 93.9943 251.774 93.9981Z" fill="#1F75FE"/>
<path d="M251.926 99.9505L252.045 99.8135H251.84L251.926 99.9505Z" fill="#1F75FE"/>
<path d="M241.868 87.155C243.208 85.5895 244.815 84.3587 246.588 83.5395C248.36 82.7203 250.261 82.3303 252.171 82.3939C254.08 82.4575 255.958 82.9732 257.686 83.909C259.415 84.8447 260.957 86.1804 262.217 87.8325L264.076 85.6403C262.573 83.7238 260.748 82.1782 258.711 81.0971C256.673 80.0159 254.466 79.4218 252.224 79.3506C249.981 79.2795 247.749 79.7328 245.663 80.683C243.577 81.6333 241.68 83.0609 240.088 84.8791L241.868 87.155Z" fill="#1F75FE"/>
<path d="M251.774 84.0038C250.103 84.0042 248.448 84.3897 246.908 85.1375C245.368 85.8853 243.974 86.9802 242.807 88.3577L244.588 90.6413C245.547 89.4688 246.713 88.5446 248.007 87.9299C249.301 87.3152 250.694 87.0241 252.093 87.0759C253.493 87.1278 254.866 87.5213 256.123 88.2305C257.38 88.9397 258.492 89.9483 259.384 91.1893L261.237 89.0123C260.064 87.4455 258.612 86.1872 256.98 85.323C255.347 84.4588 253.571 84.0089 251.774 84.0038Z" fill="#1F75FE"/>
<path d="M150.362 82.9534L150.183 137.035L122.304 95.2997" stroke="#263238" stroke-miterlimit="10" stroke-dasharray="2 2"/>
<path d="M109.175 149.831L148.879 137.522L108.963 120.114" stroke="#263238" stroke-miterlimit="10" stroke-dasharray="2 2"/>
<path d="M148.873 137.522L125.639 172.308" stroke="#263238" stroke-miterlimit="10" stroke-dasharray="2 2"/>
<path d="M151.255 84.9476H150.593" stroke="#263238" stroke-miterlimit="10"/>
<path d="M149.27 84.9628C148.337 84.9628 147.39 85.0541 146.444 85.1531C137.623 86.091 129.27 90.1427 122.528 96.7533C115.787 103.364 110.986 112.21 108.785 122.08C106.584 131.951 107.089 142.362 110.232 151.889C113.375 161.417 119.001 169.593 126.34 175.3" stroke="#263238" stroke-miterlimit="10" stroke-dasharray="2.01 2.01"/>
<path d="M126.896 175.718L127.452 176.137" stroke="#263238" stroke-miterlimit="10"/>
<path d="M118.684 120.944C118.685 118.818 118.138 116.739 117.112 114.971C116.086 113.202 114.628 111.823 112.92 111.009C111.213 110.194 109.334 109.98 107.521 110.394C105.708 110.808 104.043 111.831 102.735 113.334C101.428 114.836 100.537 116.752 100.176 118.837C99.8152 120.922 99.9998 123.083 100.707 125.047C101.414 127.012 102.611 128.691 104.148 129.872C105.685 131.054 107.492 131.684 109.34 131.684C110.567 131.686 111.782 131.41 112.916 130.871C114.05 130.332 115.081 129.541 115.949 128.543C116.817 127.546 117.505 126.361 117.974 125.057C118.444 123.753 118.685 122.355 118.684 120.944Z" fill="#1F75FE"/>
<path d="M109.446 127.756C108.881 127.751 108.33 127.557 107.86 127.197C107.39 126.838 107.021 126.329 106.799 125.732C106.799 125.671 106.753 125.587 106.726 125.503L106.68 125.343C106.362 124.217 105.959 123.06 105.892 122.9C105.564 122.271 105.367 121.562 105.317 120.83C105.267 120.098 105.366 119.362 105.606 118.682C105.846 118.001 106.221 117.395 106.7 116.909C107.179 116.424 107.749 116.073 108.367 115.885C108.984 115.697 109.63 115.677 110.255 115.826C110.881 115.974 111.467 116.289 111.968 116.743C112.47 117.198 112.872 117.78 113.144 118.444C113.416 119.109 113.55 119.837 113.536 120.571C113.524 121.284 113.384 121.986 113.125 122.634C113.019 122.923 112.9 123.197 112.781 123.479C112.621 123.813 112.484 124.162 112.371 124.521C112.327 124.674 112.287 124.826 112.252 124.978C112.168 125.35 112.049 125.71 111.894 126.051C111.658 126.563 111.306 126.992 110.875 127.292C110.444 127.592 109.95 127.753 109.446 127.756ZM109.446 116.864C108.598 116.876 107.787 117.272 107.19 117.965C106.594 118.659 106.258 119.595 106.256 120.571C106.259 121.222 106.407 121.862 106.687 122.428V122.481C106.687 122.535 107.156 123.76 107.52 125.047C107.52 125.1 107.52 125.138 107.553 125.176C107.566 125.22 107.582 125.263 107.6 125.305C107.752 125.728 108.01 126.09 108.341 126.344C108.672 126.599 109.061 126.735 109.459 126.736C109.81 126.739 110.155 126.629 110.456 126.419C110.756 126.21 111 125.908 111.16 125.549C111.28 125.278 111.371 124.992 111.431 124.696C111.471 124.529 111.517 124.362 111.57 124.186C111.697 123.783 111.849 123.391 112.027 123.014C112.133 122.763 112.245 122.504 112.344 122.253C112.553 121.729 112.667 121.162 112.682 120.586C112.684 120.097 112.601 119.613 112.44 119.161C112.278 118.709 112.041 118.298 111.74 117.952C111.44 117.606 111.084 117.332 110.691 117.145C110.298 116.959 109.877 116.863 109.453 116.864H109.446Z" fill="#263238"/>
<path d="M109.459 115.562C109.341 115.562 109.228 115.509 109.143 115.413C109.059 115.318 109.011 115.188 109.009 115.052V112.655C109.009 112.519 109.056 112.39 109.139 112.294C109.222 112.198 109.335 112.145 109.453 112.145C109.57 112.145 109.683 112.198 109.766 112.294C109.849 112.39 109.896 112.519 109.896 112.655V115.022C109.9 115.091 109.891 115.16 109.871 115.225C109.85 115.289 109.819 115.349 109.778 115.4C109.737 115.45 109.688 115.49 109.633 115.518C109.578 115.546 109.519 115.561 109.459 115.562Z" fill="#263238"/>
<path d="M104.503 121.066H102.895C102.786 121.05 102.685 120.99 102.612 120.895C102.539 120.8 102.499 120.678 102.499 120.552C102.499 120.425 102.539 120.303 102.612 120.209C102.685 120.114 102.786 120.053 102.895 120.038H104.509C104.573 120.029 104.637 120.036 104.697 120.058C104.758 120.079 104.814 120.116 104.862 120.164C104.91 120.213 104.948 120.272 104.974 120.339C105 120.406 105.014 120.479 105.014 120.552C105.014 120.625 105 120.697 104.974 120.764C104.948 120.831 104.91 120.891 104.862 120.939C104.814 120.988 104.758 121.024 104.697 121.046C104.637 121.068 104.573 121.074 104.509 121.066H104.503Z" fill="#263238"/>
<path d="M115.905 121.073H114.29C114.172 121.073 114.06 121.019 113.976 120.924C113.893 120.828 113.847 120.698 113.847 120.563C113.847 120.428 113.893 120.298 113.976 120.203C114.06 120.107 114.172 120.053 114.29 120.053H115.905C116.022 120.053 116.135 120.107 116.218 120.203C116.301 120.298 116.348 120.428 116.348 120.563C116.346 120.698 116.299 120.826 116.216 120.922C116.133 121.017 116.022 121.071 115.905 121.073Z" fill="#263238"/>
<path d="M105.674 116.841C105.617 116.842 105.559 116.829 105.506 116.804C105.453 116.78 105.404 116.743 105.363 116.696L104.079 115.22C104.033 115.172 103.995 115.113 103.97 115.048C103.944 114.982 103.931 114.911 103.931 114.839C103.931 114.767 103.944 114.696 103.97 114.631C103.995 114.565 104.033 114.506 104.079 114.458C104.163 114.364 104.276 114.311 104.394 114.311C104.511 114.311 104.624 114.364 104.708 114.458L105.985 115.935C106.047 116.007 106.088 116.098 106.105 116.197C106.121 116.296 106.112 116.398 106.078 116.491C106.044 116.584 105.987 116.663 105.914 116.718C105.841 116.774 105.755 116.803 105.667 116.803L105.674 116.841Z" fill="#263238"/>
<path d="M113.35 116.849C113.231 116.848 113.117 116.793 113.033 116.696C112.951 116.6 112.905 116.47 112.905 116.335C112.905 116.2 112.951 116.07 113.033 115.973L114.316 114.504C114.4 114.408 114.513 114.354 114.631 114.354C114.749 114.354 114.862 114.408 114.945 114.504C115.028 114.6 115.075 114.73 115.075 114.866C115.075 115.001 115.028 115.131 114.945 115.227L113.661 116.696C113.579 116.792 113.467 116.847 113.35 116.849Z" fill="#263238"/>
<path d="M133.15 97.2559C133.165 95.1299 132.632 93.0464 131.619 91.2688C130.605 89.4913 129.155 88.0995 127.453 87.2696C125.752 86.4398 123.874 86.209 122.059 86.6066C120.243 87.0042 118.571 88.0123 117.253 89.5033C115.936 90.9943 115.032 92.9013 114.657 94.9831C114.282 97.0648 114.452 99.2278 115.145 101.198C115.839 103.169 117.025 104.859 118.554 106.054C120.082 107.249 121.885 107.896 123.733 107.912C126.21 107.935 128.593 106.825 130.359 104.826C132.125 102.828 133.129 100.105 133.15 97.2559Z" fill="#1F75FE"/>
<path d="M123.793 103.231C122.596 103.186 121.448 102.675 120.536 101.783C119.624 100.89 119.002 99.6683 118.772 98.3167C118.541 96.9651 118.716 95.5636 119.267 94.341C119.819 93.1184 120.714 92.1469 121.807 91.5851C121.899 91.5297 122 91.4969 122.104 91.4889C122.208 91.4809 122.312 91.4978 122.409 91.5386C122.507 91.5793 122.596 91.643 122.671 91.7257C122.746 91.8083 122.806 91.908 122.845 92.0184C122.885 92.1289 122.904 92.2476 122.902 92.3671C122.899 92.4865 122.875 92.6041 122.831 92.7123C122.787 92.8205 122.724 92.9169 122.646 92.9954C122.567 93.074 122.476 93.1329 122.376 93.1684C121.579 93.5438 120.916 94.2217 120.5 95.0896C120.083 95.9576 119.937 96.9633 120.085 97.94C120.234 98.9167 120.668 99.8056 121.316 100.459C121.964 101.113 122.787 101.492 123.649 101.534C124.51 101.575 125.358 101.277 126.051 100.688C126.745 100.099 127.242 99.2554 127.462 98.2965C127.681 97.3376 127.608 96.3213 127.256 95.4162C126.904 94.5111 126.294 93.7717 125.526 93.3206C125.379 93.2024 125.274 93.0273 125.23 92.8272C125.185 92.627 125.205 92.4153 125.285 92.2306C125.366 92.0459 125.501 91.9006 125.667 91.8212C125.833 91.7418 126.018 91.7337 126.188 91.7982C127.206 92.4453 128.011 93.4601 128.477 94.6857C128.944 95.9114 129.046 97.2797 128.769 98.5791C128.492 99.8786 127.851 101.037 126.944 101.875C126.037 102.713 124.916 103.184 123.753 103.216L123.793 103.231Z" fill="#263238"/>
<path d="M123.839 96.1522C123.642 96.1482 123.454 96.0547 123.316 95.8922C123.179 95.7297 123.103 95.5112 123.104 95.2844V90.0932C123.104 89.865 123.183 89.6463 123.323 89.485C123.464 89.3237 123.654 89.233 123.852 89.233C124.05 89.233 124.241 89.3237 124.381 89.485C124.521 89.6463 124.6 89.865 124.6 90.0932L124.56 95.292C124.56 95.515 124.485 95.7293 124.351 95.8897C124.216 96.0502 124.033 96.1443 123.839 96.1522Z" fill="#263238"/>
<path d="M129.828 183.239C134.443 180.583 136.312 174.126 134.003 168.818C131.694 163.509 126.081 161.359 121.466 164.015C116.851 166.671 114.981 173.127 117.29 178.436C119.599 183.744 125.212 185.895 129.828 183.239Z" fill="#1F75FE"/>
<path d="M128.716 170.702H125.612V168.647C125.612 167.886 125.351 167.157 124.884 166.618C124.418 166.079 123.785 165.774 123.124 165.77H122.985C122.658 165.768 122.334 165.84 122.031 165.982C121.728 166.125 121.452 166.335 121.22 166.6C120.987 166.865 120.803 167.18 120.676 167.528C120.55 167.875 120.485 168.248 120.484 168.624V171.227C120.484 171.363 120.531 171.492 120.614 171.588C120.697 171.684 120.81 171.737 120.927 171.737C121.045 171.737 121.158 171.684 121.241 171.588C121.324 171.492 121.371 171.363 121.371 171.227V168.624C121.374 168.136 121.545 167.67 121.846 167.326C122.147 166.982 122.554 166.79 122.979 166.79H123.124C123.548 166.794 123.954 166.99 124.253 167.337C124.551 167.683 124.719 168.151 124.719 168.639V170.695H123.323C123.054 170.695 122.797 170.817 122.607 171.036C122.417 171.254 122.31 171.55 122.31 171.859V178.055C122.309 178.208 122.335 178.36 122.385 178.501C122.435 178.643 122.509 178.772 122.602 178.881C122.696 178.99 122.807 179.076 122.929 179.136C123.052 179.195 123.183 179.226 123.316 179.227H128.709C128.978 179.227 129.235 179.105 129.425 178.886C129.615 178.668 129.722 178.372 129.722 178.063V171.867C129.72 171.56 129.614 171.266 129.426 171.048C129.238 170.83 128.983 170.706 128.716 170.702ZM128.815 178.07C128.815 178.089 128.812 178.107 128.806 178.125C128.799 178.142 128.79 178.157 128.778 178.17C128.766 178.183 128.752 178.193 128.737 178.199C128.722 178.206 128.706 178.208 128.69 178.207H123.303C123.271 178.207 123.24 178.193 123.216 178.168C123.193 178.142 123.179 178.107 123.177 178.07V171.867C123.179 171.83 123.193 171.795 123.216 171.769C123.24 171.744 123.271 171.73 123.303 171.73H128.696C128.728 171.73 128.758 171.744 128.78 171.77C128.803 171.796 128.815 171.83 128.815 171.867V178.07Z" fill="#263238"/>
<path d="M126.01 173.473C125.838 173.476 125.672 173.546 125.54 173.672C125.407 173.798 125.316 173.972 125.282 174.165C125.247 174.358 125.271 174.56 125.349 174.736C125.427 174.911 125.555 175.051 125.712 175.132V176.594H126.294V175.163C126.454 175.085 126.586 174.946 126.667 174.769C126.748 174.592 126.774 174.388 126.74 174.192C126.706 173.996 126.614 173.82 126.479 173.693C126.345 173.566 126.177 173.496 126.003 173.496L126.01 173.473Z" fill="#263238"/>
<path d="M112.022 160.076C116.936 158.264 119.642 152.212 118.066 146.56C116.49 140.907 111.229 137.795 106.315 139.607C101.401 141.42 98.6953 147.471 100.271 153.124C101.847 158.776 107.108 161.889 112.022 160.076Z" fill="#1F75FE"/>
<path d="M110.26 150.006L110.333 144.441C110.34 143.884 110.154 143.347 109.817 142.947C109.479 142.547 109.017 142.318 108.533 142.31C108.048 142.302 107.581 142.516 107.234 142.904C106.886 143.292 106.687 143.823 106.68 144.381V144.814H105.581C105.445 144.814 105.314 144.876 105.216 144.985C105.119 145.095 105.062 145.244 105.059 145.401C105.058 145.478 105.07 145.554 105.095 145.625C105.12 145.697 105.156 145.762 105.203 145.817C105.25 145.872 105.306 145.916 105.367 145.947C105.429 145.977 105.495 145.993 105.562 145.994H106.667V146.862H105.568C105.501 146.86 105.434 146.873 105.371 146.901C105.308 146.93 105.25 146.972 105.202 147.026C105.153 147.079 105.114 147.144 105.087 147.215C105.061 147.286 105.046 147.363 105.045 147.441C105.045 147.596 105.098 147.746 105.191 147.858C105.285 147.97 105.413 148.036 105.548 148.042H106.653V148.917H105.555C105.429 148.934 105.313 149.003 105.228 149.112C105.144 149.221 105.097 149.361 105.097 149.507C105.097 149.653 105.144 149.794 105.228 149.902C105.313 150.011 105.429 150.081 105.555 150.097H106.567C106.018 150.566 105.612 151.224 105.408 151.976C105.204 152.728 105.214 153.535 105.435 154.28C105.656 155.025 106.077 155.67 106.638 156.122C107.199 156.574 107.87 156.81 108.554 156.794C109.238 156.779 109.901 156.514 110.446 156.037C110.991 155.561 111.39 154.897 111.586 154.142C111.782 153.388 111.764 152.581 111.535 151.839C111.306 151.097 110.878 150.457 110.313 150.013L110.26 150.006ZM108.407 155.585C107.824 155.569 107.27 155.288 106.867 154.803C106.463 154.317 106.244 153.668 106.256 152.997C106.26 152.553 106.366 152.119 106.565 151.738C106.765 151.358 107.049 151.046 107.388 150.835L107.639 150.668L107.719 144.381C107.724 144.135 107.813 143.901 107.967 143.731C108.12 143.56 108.326 143.465 108.539 143.467C108.645 143.469 108.748 143.495 108.845 143.543C108.941 143.591 109.029 143.661 109.102 143.748C109.175 143.835 109.232 143.937 109.271 144.05C109.31 144.162 109.329 144.282 109.327 144.403L109.247 150.653L109.519 150.828C109.949 151.099 110.288 151.529 110.481 152.047C110.674 152.566 110.711 153.144 110.585 153.69C110.46 154.236 110.179 154.717 109.788 155.058C109.397 155.399 108.918 155.579 108.427 155.57L108.407 155.585Z" fill="#263238"/>
<path d="M113.211 143.756C112.807 143.75 112.411 143.882 112.072 144.135C111.733 144.389 111.467 144.751 111.307 145.178C111.147 145.605 111.101 146.077 111.174 146.534C111.247 146.992 111.437 147.414 111.718 147.747C112 148.08 112.361 148.31 112.756 148.408C113.151 148.505 113.563 148.466 113.938 148.295C114.314 148.124 114.637 147.828 114.867 147.446C115.097 147.063 115.223 146.611 115.23 146.146C115.234 145.837 115.185 145.529 115.086 145.242C114.987 144.954 114.839 144.691 114.652 144.469C114.464 144.247 114.241 144.07 113.993 143.948C113.746 143.825 113.48 143.76 113.211 143.756ZM113.165 147.288C112.961 147.287 112.762 147.215 112.594 147.083C112.425 146.95 112.295 146.763 112.219 146.545C112.144 146.327 112.126 146.089 112.17 145.859C112.213 145.63 112.314 145.421 112.461 145.258C112.608 145.095 112.794 144.987 112.995 144.946C113.196 144.906 113.403 144.935 113.589 145.03C113.775 145.126 113.933 145.283 114.041 145.482C114.149 145.681 114.204 145.912 114.197 146.146C114.187 146.453 114.074 146.744 113.881 146.957C113.689 147.17 113.432 147.288 113.165 147.288Z" fill="#263238"/>
<path d="M159.344 90.2972C160.738 84.582 157.84 78.6491 152.871 77.0459C147.902 75.4426 142.744 78.7761 141.351 84.4913C139.957 90.2066 142.855 96.1394 147.823 97.7427C152.792 99.3459 157.95 96.0125 159.344 90.2972Z" fill="#1F75FE"/>
<path d="M154.782 88.8981V82.1541V81.6745C154.782 81.371 154.678 81.0798 154.492 80.8645C154.306 80.6491 154.053 80.5272 153.79 80.5251H147.88C147.617 80.5251 147.365 80.6441 147.178 80.8564C146.991 81.0687 146.884 81.3571 146.881 81.6593V83.3111V87.6955C146.489 87.4427 146.047 87.3091 145.597 87.3073C145.187 87.3672 144.801 87.5619 144.484 87.8678C144.168 88.1738 143.935 88.5782 143.813 89.0325C143.691 89.4868 143.686 89.9719 143.798 90.4297C143.909 90.8875 144.133 91.2985 144.443 91.6136C144.752 91.9288 145.134 92.1347 145.543 92.2066C145.951 92.2786 146.369 92.2137 146.747 92.0195C147.124 91.8254 147.445 91.5103 147.67 91.1119C147.896 90.7136 148.017 90.2489 148.019 89.7735C148.016 89.4694 147.959 89.1692 147.854 88.8905V84.4605L153.763 84.4985V87.7411C153.369 87.4926 152.928 87.3593 152.479 87.3529C152.069 87.4115 151.682 87.6048 151.365 87.9096C151.048 88.2145 150.814 88.6181 150.691 89.0721C150.568 89.526 150.561 90.0111 150.672 90.4693C150.782 90.9275 151.005 91.3393 151.314 91.6555C151.623 91.9717 152.004 92.1789 152.412 92.2522C152.821 92.3255 153.239 92.2619 153.617 92.0689C153.995 91.876 154.316 91.5619 154.543 91.1642C154.769 90.7666 154.891 90.3022 154.895 89.8268C154.917 89.5115 154.878 89.1944 154.782 88.8981ZM145.584 91.0523C145.365 90.9947 145.164 90.867 145.005 90.6838C144.846 90.5005 144.736 90.2693 144.687 90.0169C144.637 89.7645 144.651 89.5011 144.726 89.2574C144.802 89.0136 144.936 88.7993 145.112 88.6394C145.289 88.4795 145.502 88.3804 145.725 88.3537C145.949 88.3269 146.175 88.3735 146.377 88.4882C146.578 88.6029 146.747 88.7809 146.865 89.0016C146.982 89.2223 147.043 89.4767 147.04 89.7354C146.995 90.1303 146.818 90.4894 146.545 90.7356C146.273 90.9817 145.928 91.0954 145.584 91.0523ZM153.823 83.3187L147.867 83.2654V81.5908L153.823 81.6517V83.3187ZM152.499 91.0979C152.281 91.0392 152.081 90.9107 151.923 90.7272C151.766 90.5437 151.656 90.3128 151.608 90.0609C151.559 89.8091 151.573 89.5465 151.649 89.3035C151.724 89.0605 151.857 88.8469 152.034 88.6873C152.21 88.5277 152.422 88.4286 152.645 88.4014C152.868 88.3741 153.093 88.4199 153.294 88.5334C153.496 88.6469 153.665 88.8235 153.783 89.0428C153.901 89.2622 153.963 89.5155 153.962 89.7735C153.918 90.1698 153.742 90.5307 153.469 90.7785C153.197 91.0262 152.851 91.141 152.506 91.0979H152.499Z" fill="#263238"/>
<path d="M200.337 128.106C200.337 128.106 203.513 129.728 204.751 133.176C205.988 136.624 216.569 167.878 216.92 170.314C217.271 172.75 205.631 194.672 205.631 194.672L202.276 191.018L205.981 173.161L201.217 159.969L198.57 155.707" fill="#1F75FE"/>
<path d="M200.337 128.106C200.337 128.106 203.513 129.728 204.751 133.176C205.988 136.624 216.569 167.878 216.92 170.314C217.271 172.75 205.631 194.672 205.631 194.672L202.276 191.018L205.981 173.161L201.217 159.969L198.57 155.707" stroke="#263238" stroke-linejoin="round"/>
<path d="M214.121 177.789C209.68 175.368 206.272 176.632 205.154 177.195L202.282 191.01L205.637 194.664C205.637 194.664 210.766 184.967 214.121 177.789Z" fill="white" stroke="#263238" stroke-linejoin="round"/>
<path d="M200.886 190.949C200.886 190.949 205.518 201.537 204.942 205.587C204.367 209.636 202.785 295.003 202.785 295.003L192.607 295.452L183.019 211.22L180.272 211.669L175.773 296.35L164.417 294.325L160.89 211.448L160.301 192.974L200.886 190.949Z" fill="#263238" stroke="#263238" stroke-linejoin="round"/>
<path d="M163.63 257.614C164.122 257.523 164.588 257.301 164.993 256.967C165.502 256.464 165.43 256.464 166.588 257.796C167.746 259.128 167.455 259.707 168.394 258.877C169.334 258.048 169.115 257.713 170.055 258.961C170.995 260.209 170.783 260.628 172.08 260.377C173.377 260.126 173.602 259.707 173.602 260.955C173.602 262.204 173.384 262.538 173.959 262.79C174.636 263.038 175.239 263.5 175.7 264.122C176.13 264.784 176.362 264.449 176.567 265.203C176.699 265.648 176.927 266.049 177.228 266.367L163.63 257.614Z" fill="#5E5E5E" stroke="#263238" stroke-linejoin="round"/>
<path d="M163.689 257.88C164.223 258.783 164.592 259.8 164.774 260.871C164.993 262.455 164.563 263.703 165.284 264.449C166.005 265.195 166.442 264.868 166.608 265.53C166.773 266.192 166.389 266.862 166.753 267.113C167.117 267.364 168.56 266.283 168.56 266.778C168.56 267.273 168.414 267.539 168.99 267.281C169.565 267.022 169.572 266.2 169.929 267.029C170.287 267.859 170.591 268.94 170.803 268.78C171.46 268.228 172.231 267.882 173.04 267.775C173.516 267.742 173.992 267.858 174.416 268.11C174.634 268.194 174.992 268.613 175.21 268.194C175.429 267.775 177.361 266.626 177.361 266.626L163.689 257.88Z" fill="#5E5E5E" stroke="#263238" stroke-linejoin="round"/>
<path d="M163.63 257.614L177.341 266.626C177.341 266.626 167.355 267.296 163.63 257.614Z" fill="white" stroke="#263238" stroke-linejoin="round"/>
<path d="M189.332 244.582C189.481 244.036 189.515 243.457 189.431 242.892C189.266 242.131 189.233 242.223 190.788 241.621C192.343 241.02 192.66 241.583 192.429 240.244C192.197 238.904 191.846 238.98 193.236 238.569C194.626 238.158 194.851 238.569 195.221 237.107C195.592 235.646 195.374 235.25 196.346 235.806C197.319 236.362 197.484 236.727 197.934 236.247C198.43 235.664 199.055 235.248 199.741 235.045C200.456 234.9 200.29 234.527 200.972 234.634C201.376 234.698 201.788 234.645 202.17 234.481L189.332 244.582Z" fill="#5E5E5E" stroke="#263238" stroke-linejoin="round"/>
<path d="M189.563 244.643C190.504 244.497 191.46 244.57 192.376 244.856C193.699 245.336 194.487 246.341 195.387 245.922C196.287 245.503 196.227 244.917 196.81 245.062C197.392 245.206 197.749 245.884 198.133 245.617C198.517 245.351 198.285 243.387 198.676 243.608C199.066 243.829 199.198 244.087 199.258 243.38C199.318 242.672 198.676 242.306 199.483 242.306C200.29 242.306 201.263 242.481 201.23 242.185C201.097 241.26 201.173 240.311 201.448 239.429C201.631 238.922 201.934 238.484 202.322 238.165C202.481 237.975 202.984 237.792 202.739 237.404C202.494 237.016 202.468 234.497 202.468 234.497L189.563 244.643Z" fill="#5E5E5E" stroke="#263238" stroke-linejoin="round"/>
<path d="M189.332 244.582L202.441 234.443C202.441 234.443 198.53 245.1 189.332 244.582Z" fill="white" stroke="#263238" stroke-linejoin="round"/>
<path d="M164.808 292.97C164.808 292.97 161.869 294.097 161.869 295.452C161.869 296.807 163.239 308.065 163.239 308.065C163.239 308.065 156.582 312.342 156 313.469C155.417 314.596 155.801 320 155.801 320H175.773C175.773 320 176.362 314.367 176.362 312.342C176.273 310.379 176.076 308.424 175.773 306.489L176.944 295.003C176.944 295.003 171.266 290.048 164.808 292.97Z" fill="white" stroke="#263238" stroke-linejoin="round"/>
<path d="M155.801 320H175.773C175.773 320 175.898 318.79 176.031 317.298H155.682C155.709 318.729 155.801 320 155.801 320Z" fill="white" stroke="#263238" stroke-linejoin="round"/>
<path d="M173.033 292.072C171.484 290.417 169.468 289.458 167.355 289.37C164.047 289.37 162.657 291.654 162.657 291.654L164.642 302.911H169.936L173.033 292.072Z" fill="white" stroke="#263238" stroke-linejoin="round"/>
<path d="M170.677 303.924H163.927C163.781 303.924 163.641 303.857 163.537 303.739C163.433 303.621 163.373 303.46 163.372 303.292C163.373 303.123 163.432 302.962 163.536 302.842C163.64 302.723 163.781 302.655 163.927 302.653H170.677C170.824 302.655 170.963 302.723 171.066 302.843C171.169 302.962 171.227 303.124 171.226 303.292C171.226 303.46 171.169 303.62 171.066 303.739C170.963 303.857 170.823 303.924 170.677 303.924Z" fill="white" stroke="#263238" stroke-linejoin="round"/>
<path d="M170.677 305.477H163.927C163.781 305.477 163.641 305.41 163.537 305.292C163.433 305.174 163.373 305.013 163.372 304.845C163.373 304.676 163.432 304.514 163.536 304.395C163.64 304.275 163.781 304.207 163.927 304.205H170.677C170.824 304.207 170.963 304.276 171.066 304.395C171.169 304.515 171.227 304.677 171.226 304.845C171.226 305.012 171.169 305.173 171.066 305.292C170.963 305.41 170.823 305.477 170.677 305.477Z" fill="white" stroke="#263238" stroke-linejoin="round"/>
<path d="M170.677 307.029H163.927C163.781 307.029 163.641 306.963 163.537 306.845C163.433 306.727 163.373 306.566 163.372 306.398C163.373 306.229 163.432 306.067 163.536 305.948C163.64 305.828 163.781 305.76 163.927 305.758H170.677C170.824 305.76 170.963 305.828 171.066 305.948C171.169 306.068 171.227 306.229 171.226 306.398C171.226 306.565 171.169 306.726 171.066 306.844C170.963 306.963 170.823 307.029 170.677 307.029Z" fill="white" stroke="#263238" stroke-linejoin="round"/>
<path d="M170.677 308.582H163.927C163.781 308.582 163.641 308.516 163.537 308.398C163.433 308.279 163.373 308.119 163.372 307.95C163.373 307.781 163.432 307.62 163.536 307.5C163.64 307.381 163.781 307.313 163.927 307.311H170.677C170.824 307.313 170.963 307.381 171.066 307.501C171.169 307.621 171.227 307.782 171.226 307.95C171.226 308.118 171.169 308.279 171.066 308.397C170.963 308.516 170.823 308.582 170.677 308.582Z" fill="white" stroke="#263238" stroke-linejoin="round"/>
<path d="M203.255 292.97C203.255 292.97 206.187 294.097 206.187 295.452C206.187 296.807 204.817 308.065 204.817 308.065C204.817 308.065 211.474 312.342 212.063 313.469C212.652 314.596 212.261 320 212.261 320H192.283C192.283 320 191.694 314.367 191.694 312.342C191.783 310.379 191.98 308.424 192.283 306.489L191.105 295.003C191.105 295.003 196.79 290.048 203.255 292.97Z" fill="white" stroke="#263238" stroke-linejoin="round"/>
<path d="M212.261 320H192.283C192.283 320 192.158 318.79 192.019 317.298H212.374C212.347 318.729 212.261 320 212.261 320Z" fill="white" stroke="#263238" stroke-linejoin="round"/>
<path d="M195.029 292.072C196.579 290.417 198.594 289.458 200.707 289.37C204.016 289.37 205.406 291.654 205.406 291.654L203.42 302.911H198.126L195.029 292.072Z" fill="white" stroke="#263238" stroke-linejoin="round"/>
<path d="M204.056 303.924H197.306C197.16 303.924 197.019 303.857 196.915 303.739C196.811 303.621 196.752 303.46 196.75 303.292C196.752 303.123 196.811 302.962 196.915 302.842C197.019 302.723 197.159 302.655 197.306 302.653H204.056C204.202 302.655 204.342 302.723 204.444 302.843C204.547 302.962 204.605 303.124 204.605 303.292C204.605 303.46 204.547 303.62 204.444 303.739C204.341 303.857 204.201 303.924 204.056 303.924Z" fill="white" stroke="#263238" stroke-linejoin="round"/>
<path d="M204.056 305.477H197.306C197.16 305.477 197.019 305.41 196.915 305.292C196.811 305.174 196.752 305.013 196.75 304.845C196.752 304.676 196.811 304.514 196.915 304.395C197.019 304.275 197.159 304.207 197.306 304.205H204.056C204.202 304.207 204.342 304.276 204.444 304.395C204.547 304.515 204.605 304.677 204.605 304.845C204.605 305.012 204.547 305.173 204.444 305.292C204.341 305.41 204.201 305.477 204.056 305.477Z" fill="white" stroke="#263238" stroke-linejoin="round"/>
<path d="M204.056 307.029H197.306C197.16 307.029 197.019 306.963 196.915 306.845C196.811 306.727 196.752 306.566 196.75 306.398C196.752 306.229 196.811 306.067 196.915 305.948C197.019 305.828 197.159 305.76 197.306 305.758H204.056C204.202 305.76 204.342 305.828 204.444 305.948C204.547 306.068 204.605 306.229 204.605 306.398C204.605 306.565 204.547 306.726 204.444 306.844C204.341 306.963 204.201 307.029 204.056 307.029Z" fill="white" stroke="#263238" stroke-linejoin="round"/>
<path d="M204.056 308.582H197.306C197.16 308.582 197.019 308.516 196.915 308.398C196.811 308.279 196.752 308.119 196.75 307.95C196.752 307.781 196.811 307.62 196.915 307.5C197.019 307.381 197.159 307.313 197.306 307.311H204.056C204.202 307.313 204.342 307.381 204.444 307.501C204.547 307.621 204.605 307.782 204.605 307.95C204.605 308.118 204.547 308.279 204.444 308.397C204.341 308.516 204.201 308.582 204.056 308.582Z" fill="white" stroke="#263238" stroke-linejoin="round"/>
<path d="M175.018 106.969C175.018 106.969 174.509 117.298 174.357 118.873C174.204 120.449 169.215 123.44 164.933 125.77C160.652 128.099 157.052 129.119 157.224 131.288C157.396 133.458 159.964 214.257 159.964 214.257C159.964 214.257 165.787 214.059 174.357 210.322C182.926 206.584 188.055 201.85 192.336 197.709C194.924 195.217 197.81 193.167 200.906 191.619C200.906 191.619 201.567 153.393 201.567 146.71C201.567 140.027 202.765 133.115 202.428 130.36C202.09 127.604 191.807 124.27 189.239 122.87L186.665 121.492C186.665 121.492 186.665 117.686 187.697 115.296L188.723 112.936L175.534 106.238L175.018 106.969Z" fill="#1F75FE" stroke="#263238" stroke-linejoin="round"/>
<path d="M192.316 197.686C194.905 195.194 197.791 193.144 200.886 191.596C200.886 191.596 200.886 191.376 200.886 190.965C198.279 191.109 195.777 192.647 184.806 196.91C176.609 199.977 168.157 202.053 159.586 203.106C159.798 209.865 159.937 214.249 159.937 214.249C159.937 214.249 165.761 214.051 174.33 210.314C182.9 206.577 188.035 201.827 192.316 197.686Z" fill="white" stroke="#263238" stroke-linejoin="round"/>
<path d="M159.408 197.503C159.408 197.503 189.927 192.632 200.866 188.575" stroke="#263238" stroke-linejoin="round"/>
<path d="M189.239 122.816L186.665 121.439C186.665 121.439 186.665 117.633 187.697 115.243L188.723 112.883L175.534 106.185L175.018 106.946C175.018 106.946 174.509 117.275 174.357 118.851C174.244 119.878 172.087 121.5 169.413 123.151C171.068 125.26 175.429 130.23 180.517 131.463C184.62 132.453 188.18 127.345 190.291 123.288C189.855 123.128 189.504 122.961 189.239 122.816Z" fill="white" stroke="#263238" stroke-linejoin="round"/>
<path d="M182.41 140.597L182.556 138.991C182.734 136.946 182.734 134.886 182.556 132.841L182.41 131.242C182.41 131.242 179.174 131.052 178.181 132.765C177.189 134.478 177.679 137.697 177.93 138.687C178.347 140.308 182.41 140.597 182.41 140.597Z" fill="#263238" stroke="#263238" stroke-linejoin="round"/>
<path d="M182.41 151.954L182.556 150.356C182.734 148.311 182.734 146.25 182.556 144.205L182.41 142.599C182.41 142.599 179.174 142.409 178.181 144.122C177.189 145.834 177.679 149.046 177.93 150.044C178.347 151.673 182.41 151.954 182.41 151.954Z" fill="#263238" stroke="#263238" stroke-linejoin="round"/>
<path d="M182.41 140.597V142.599" stroke="#263238" stroke-linejoin="round"/>
<path d="M181.417 140.597V142.409" stroke="#263238" stroke-linejoin="round"/>
<path d="M187.697 115.243L188.723 112.883L175.534 106.185L175.018 106.946L176.143 109.229C176.143 109.229 179.598 116.59 186.95 118.729C187.045 117.53 187.297 116.355 187.697 115.243Z" fill="#263238" stroke="#263238" stroke-linejoin="round"/>
<path d="M189.921 90.2226C189.921 90.2226 191.979 95.7412 191.979 96.5252C191.939 97.0958 191.76 97.6419 191.463 98.1008C191.463 98.1008 194.546 101.45 194.374 102.242C194.202 103.033 192.66 104.015 192.66 104.015C192.66 104.015 193.858 111.307 193.858 112.289C193.858 113.271 191.463 115.638 186.665 115.045C183.73 114.644 180.977 113.199 178.79 110.911C178.79 110.911 174.337 105.393 174.158 102.044C173.979 98.6945 177.42 89.058 181.695 87.6574C185.97 86.2569 189.921 90.2226 189.921 90.2226Z" fill="white" stroke="#263238" stroke-linejoin="round"/>
<path d="M189.239 98.7934C189.239 99.5013 188.968 100.072 188.637 100.072C188.306 100.072 188.035 99.5013 188.035 98.7934C188.035 98.0855 188.306 97.5146 188.637 97.5146C188.968 97.5146 189.239 98.0855 189.239 98.7934Z" fill="#263238"/>
<path d="M186.665 97.1189C186.665 97.1189 188.379 94.5537 190.437 95.9391" stroke="#263238" stroke-linejoin="round"/>
<path d="M186.328 104.799C186.328 104.799 187.353 106.771 190.96 105.987" stroke="#263238" stroke-linejoin="round"/>
<path d="M173.993 89.6289C173.993 89.6289 168.513 91.9962 167.997 95.7183C167.481 99.4405 172.107 104.586 172.795 105.37C173.483 106.154 177.427 106.131 178.446 104.609C179.465 103.087 177.93 100.468 178.956 99.4862C179.981 98.5042 181.358 98.8924 181.702 95.9391C182.046 92.9857 180.842 91.7982 182.556 90.8163C184.269 89.8344 186.493 91.9962 189.921 90.2226C193.349 88.4491 192.316 81.5528 188.551 78.9952C184.786 76.4376 178.79 79.9771 178.625 81.3549C178.459 82.7326 179.65 84.5061 178.625 84.7041C177.599 84.902 175.369 84.1179 175.025 86.0818C174.803 87.3067 174.457 88.4973 173.993 89.6289Z" fill="#263238" stroke="#263238" stroke-linejoin="round"/>
<path d="M178.618 105.987C178.618 105.987 176.732 101.648 174.165 102.044C171.597 102.44 172.279 108.94 174.165 110.318C176.051 111.695 178.618 108.94 178.618 108.94" fill="white"/>
<path d="M178.618 105.987C178.618 105.987 176.732 101.648 174.165 102.044C171.597 102.44 172.279 108.94 174.165 110.318C176.051 111.695 178.618 108.94 178.618 108.94" stroke="#263238" stroke-linejoin="round"/>
<path d="M159.342 128.731C159.342 128.731 154.372 131.09 153.518 134.242C152.664 137.393 142.037 166.166 141.011 168.495C139.985 170.824 141.183 174.995 143.069 175.787C144.955 176.578 145.981 175.787 147.86 174.211C149.74 172.636 159.342 154.116 159.342 154.116" fill="#1F75FE"/>
<path d="M159.342 128.731C159.342 128.731 154.372 131.09 153.518 134.242C152.664 137.393 142.037 166.166 141.011 168.495C139.985 170.824 141.183 174.995 143.069 175.787C144.955 176.578 145.981 175.787 147.86 174.211C149.74 172.636 159.342 154.116 159.342 154.116" stroke="#263238" stroke-linejoin="round"/>
<path d="M146.986 129.22L153.02 129.099C153.348 129.092 153.665 129.236 153.901 129.498C154.138 129.76 154.273 130.119 154.279 130.497L154.566 149.432C154.572 149.81 154.447 150.174 154.219 150.446C153.991 150.717 153.679 150.874 153.351 150.88L147.317 151.001C146.987 151.008 146.668 150.864 146.431 150.6C146.193 150.336 146.057 149.975 146.051 149.596L145.764 130.668C145.758 130.288 145.884 129.922 146.113 129.649C146.342 129.376 146.656 129.219 146.986 129.212L146.986 129.22Z" fill="#263238" stroke="#263238" stroke-linejoin="round"/>
<path d="M144.366 155.38C144.366 155.38 144.32 144 144.247 142.394C144.174 140.788 145.862 139.136 146.894 138.337C147.926 137.538 152.314 135.208 152.85 135.482C153.386 135.756 153.207 136.746 152.493 137.332C151.778 137.918 148.628 139.935 148.032 140.491C147.437 141.047 147.483 143.208 147.483 143.208C147.483 143.208 151.109 141.206 152.188 140.666C153.267 140.126 154.451 139.547 154.888 139.981C155.014 140.133 155.101 140.322 155.14 140.528C155.178 140.733 155.167 140.947 155.106 141.146C155.381 141.538 155.518 142.035 155.49 142.538C155.391 143.246 152.843 146.055 152.062 146.793C151.48 147.354 150.924 147.948 150.395 148.575C150.395 148.575 155.206 147.22 155.543 147.136C155.881 147.052 156.278 147.897 155.345 148.544C153.892 149.298 152.401 149.946 150.878 150.485C150.669 151.832 150.327 153.148 149.859 154.405C149.482 155.69 148.735 156.789 147.741 157.519C147.741 157.519 149.773 170.017 148.297 173.374C146.821 176.731 142.202 179.121 140.356 174.98C138.51 170.839 139.661 165.793 141.494 163.029C143.327 160.266 144.366 155.38 144.366 155.38Z" fill="white" stroke="#263238" stroke-linejoin="round"/>
<path d="M148.707 166.188C144.651 168.19 141.971 166.257 140.594 164.666C139.33 167.528 138.794 171.562 140.33 174.995C142.182 179.136 146.795 176.746 148.271 173.389C148.879 172.027 148.899 169.126 148.707 166.188Z" fill="#1F75FE" stroke="#263238" stroke-linejoin="round"/>
<path d="M155.086 141.146L148.462 145.941" stroke="#263238" stroke-linejoin="round"/>
<path d="M155.086 141.146L148.462 145.941" stroke="#263238" stroke-linejoin="round"/>
<path d="M203.824 187.928L198.305 189.275C197.716 189.412 193.726 193.728 193.256 194.542C192.786 195.357 194.077 195.89 194.665 195.89C195.254 195.89 198.418 193.195 198.418 193.195L197.577 195.623L203.917 201.971C203.917 201.971 205.617 198.462 206.438 196.164C207.014 194.284 207.407 192.336 207.609 190.356" fill="white"/>
<path d="M203.824 187.928L198.305 189.275C197.716 189.412 193.726 193.728 193.256 194.542C192.786 195.357 194.077 195.89 194.665 195.89C195.254 195.89 198.418 193.195 198.418 193.195L197.577 195.623L203.917 201.971C203.917 201.971 205.617 198.462 206.438 196.164C207.014 194.284 207.407 192.336 207.609 190.356" stroke="#263238" stroke-linejoin="round"/>
</svg>
