<svg width="320" height="320" viewBox="0 0 320 320" fill="none" xmlns="http://www.w3.org/2000/svg">
<path d="M320 281.211H0V281.426H320V281.211Z" fill="#EBEBEB"/>
<path d="M287.935 295.031H266.738V295.246H287.935V295.031Z" fill="#EBEBEB"/>
<path d="M211.982 297.367H206.42V297.582H211.982V297.367Z" fill="#EBEBEB"/>
<path d="M266.1 287.06H253.818V287.275H266.1V287.06Z" fill="#EBEBEB"/>
<path d="M61.2158 288.503H33.5742V288.718H61.2158V288.503Z" fill="#EBEBEB"/>
<path d="M70.9692 288.503H66.918V288.718H70.9692V288.503Z" fill="#EBEBEB"/>
<path d="M144.096 292.128H84.1406V292.343H144.096V292.128Z" fill="#EBEBEB"/>
<path d="M151.681 242.903H28.1031C27.135 242.901 26.2071 242.383 25.5232 241.464C24.8392 240.544 24.4551 239.298 24.4551 237.999V4.8615C24.4635 3.5697 24.8514 2.33453 25.5344 1.42428C26.2174 0.514029 27.1405 0.00221292 28.1031 0H151.681C152.65 0 153.579 0.516717 154.265 1.43648C154.95 2.35624 155.335 3.6037 155.335 4.90444V237.999C155.335 239.299 154.95 240.547 154.265 241.467C153.579 242.386 152.65 242.903 151.681 242.903ZM28.1031 0.171785C27.1774 0.17406 26.2902 0.669156 25.6363 1.5484C24.9824 2.42765 24.6151 3.6192 24.6151 4.8615V237.999C24.6151 239.241 24.9824 240.433 25.6363 241.312C26.2902 242.191 27.1774 242.686 28.1031 242.688H151.681C152.607 242.686 153.495 242.191 154.15 241.312C154.805 240.433 155.173 239.242 155.175 237.999V4.8615C155.173 3.61841 154.805 2.42688 154.15 1.54788C153.495 0.668877 152.607 0.174056 151.681 0.171785H28.1031Z" fill="#EBEBEB"/>
<path d="M290.119 242.903H166.535C165.567 242.901 164.638 242.383 163.953 241.464C163.268 240.545 162.883 239.299 162.881 237.999V4.8615C162.891 3.56892 163.28 2.33376 163.964 1.42374C164.648 0.513729 165.572 0.00218878 166.535 0H290.119C291.081 0.00447026 292.002 0.517285 292.684 1.42729C293.365 2.3373 293.752 3.57119 293.761 4.8615V237.999C293.761 239.296 293.378 240.541 292.695 241.461C292.012 242.38 291.086 242.899 290.119 242.903ZM166.535 0.171785C165.609 0.174056 164.721 0.668877 164.066 1.54788C163.411 2.42688 163.043 3.61841 163.041 4.8615V237.999C163.043 239.242 163.411 240.433 164.066 241.312C164.721 242.191 165.609 242.686 166.535 242.688H290.119C291.046 242.686 291.933 242.191 292.588 241.312C293.243 240.433 293.612 239.242 293.614 237.999V4.8615C293.612 3.61841 293.243 2.42688 292.588 1.54788C291.933 0.668877 291.046 0.174056 290.119 0.171785H166.535Z" fill="#EBEBEB"/>
<path d="M178.055 280.378H274.189V91.2175L178.055 91.2175V280.378Z" fill="#F0F0F0"/>
<path d="M181.453 132.111L270.791 132.111V97.1785L181.453 97.1785V132.111Z" fill="#E0E0E0"/>
<path d="M265.708 132.111H270.783V102.83H265.708V132.111Z" fill="#EBEBEB"/>
<path d="M241.171 132.111H246.246V102.83H241.171V132.111Z" fill="#EBEBEB"/>
<path d="M209.616 130.943L214.617 132.1L218.323 103.245L213.322 102.088L209.616 130.943Z" fill="#EBEBEB"/>
<path d="M259.425 132.111H264.5V106.687H259.425V132.111Z" fill="#EBEBEB"/>
<path d="M247.763 132.111H252.838V106.687H247.763V132.111Z" fill="#EBEBEB"/>
<path d="M218.317 132.111H223.393V106.687H218.317V132.111Z" fill="#EBEBEB"/>
<path d="M230.405 130.624L235.359 132.102L239.469 107.283L234.515 105.805L230.405 130.624Z" fill="#EBEBEB"/>
<path d="M255.04 132.111H257.574V101.379H255.04V132.111Z" fill="#EBEBEB"/>
<path d="M224.85 132.111H227.385V101.379H224.85V132.111Z" fill="#EBEBEB"/>
<path d="M270.785 137.642H181.447V172.575H270.785V137.642Z" fill="#E0E0E0"/>
<path d="M186.522 143.303H181.447V172.583H186.522V143.303Z" fill="#EBEBEB"/>
<path d="M211.065 143.303H205.99V172.583H211.065V143.303Z" fill="#EBEBEB"/>
<path d="M238.925 142.553L233.924 143.71L237.63 172.565L242.631 171.408L238.925 142.553Z" fill="#EBEBEB"/>
<path d="M192.813 147.159H187.738V172.583H192.813V147.159Z" fill="#EBEBEB"/>
<path d="M204.479 147.159H199.404V172.583H204.479V147.159Z" fill="#EBEBEB"/>
<path d="M233.921 147.159H228.846V172.583H233.921V147.159Z" fill="#EBEBEB"/>
<path d="M217.734 146.263L212.779 147.741L216.889 172.559L221.844 171.082L217.734 146.263Z" fill="#EBEBEB"/>
<path d="M197.197 141.842H194.662V172.575H197.197V141.842Z" fill="#EBEBEB"/>
<path d="M227.386 141.842H224.852V172.575H227.386V141.842Z" fill="#EBEBEB"/>
<path d="M265.708 172.575H270.783V143.294H265.708V172.575Z" fill="#EBEBEB"/>
<path d="M259.425 172.575H264.5V147.15H259.425V172.575Z" fill="#EBEBEB"/>
<path d="M247.763 172.575H252.838V147.15H247.763V172.575Z" fill="#EBEBEB"/>
<path d="M255.04 172.583H257.574V141.851H255.04V172.583Z" fill="#EBEBEB"/>
<path d="M181.453 213.047L270.791 213.047V178.115H181.453V213.047Z" fill="#E0E0E0"/>
<path d="M214.433 213.047H219.508V183.766H214.433V213.047Z" fill="#EBEBEB"/>
<path d="M182.881 211.885L187.883 213.042L191.589 184.187L186.587 183.03L182.881 211.885Z" fill="#EBEBEB"/>
<path d="M232.685 213.047H237.76V187.623H232.685V213.047Z" fill="#EBEBEB"/>
<path d="M221.019 213.047H226.094V187.623H221.019V213.047Z" fill="#EBEBEB"/>
<path d="M191.577 213.047H196.652V187.623H191.577V213.047Z" fill="#EBEBEB"/>
<path d="M203.665 211.557L208.619 213.035L212.729 188.216L207.775 186.739L203.665 211.557Z" fill="#EBEBEB"/>
<path d="M228.302 213.047H230.836V182.315H228.302V213.047Z" fill="#EBEBEB"/>
<path d="M198.112 213.047H200.646V182.315H198.112V213.047Z" fill="#EBEBEB"/>
<path d="M241.266 211.879L246.268 213.036L249.974 184.181L244.972 183.024L241.266 211.879Z" fill="#EBEBEB"/>
<path d="M249.964 213.047H255.039V187.623H249.964V213.047Z" fill="#EBEBEB"/>
<path d="M262.061 211.557L267.016 213.035L271.126 188.216L266.171 186.738L262.061 211.557Z" fill="#EBEBEB"/>
<path d="M256.499 213.047H259.033V182.315H256.499V213.047Z" fill="#EBEBEB"/>
<path d="M290.764 91.2261H274.182V280.876H290.764V91.2261Z" fill="#E0E0E0"/>
<path d="M123.801 76.3582V49.723H95.724V76.3582H123.801Z" fill="#E0E0E0"/>
<path d="M122.482 74.6145V51.458H97.0424V74.6145H122.482Z" fill="#EBEBEB"/>
<path d="M114.066 109.813V83.178H85.9896V109.813H114.066Z" fill="#E0E0E0"/>
<path d="M112.748 108.07V84.9131H87.308V108.07H112.748Z" fill="#EBEBEB"/>
<path d="M72.5316 76.3582H90.4004V42.4307H72.5316V76.3582Z" fill="#E0E0E0"/>
<path d="M73.6952 74.7605H89.2344V44.0197H73.6952V74.7605Z" fill="#EBEBEB"/>
<path d="M62.3606 120.868H82.207V83.1866H62.3606V120.868Z" fill="#E0E0E0"/>
<path d="M63.6616 119.09H80.916V84.9474H63.6616V119.09Z" fill="#EBEBEB"/>
<path d="M44.4805 55.5035V76.3582H66.4645V55.5035H44.4805Z" fill="#E0E0E0"/>
<path d="M45.5176 56.8693V75.0011H65.4344V56.8693H45.5176Z" fill="#EBEBEB"/>
<path d="M160 319.999C228.533 319.999 284.089 315.646 284.089 310.276C284.089 304.906 228.533 300.553 160 300.553C91.467 300.553 35.9102 304.906 35.9102 310.276C35.9102 315.646 91.467 319.999 160 319.999Z" fill="#F5F5F5"/>
<path d="M278.401 12.0258V45.7986C278.397 46.2356 278.326 46.6667 278.193 47.0657C278.06 47.4647 277.868 47.8231 277.629 48.1189C277.389 48.4148 277.107 48.642 276.8 48.7865C276.492 48.931 276.166 48.9899 275.841 48.9594H190.856C190.856 48.9594 181.032 42.8095 181.761 34.2203C182.318 27.349 182.894 21.7746 183.368 17.5229C183.648 15.035 184.585 12.7649 186.007 11.1255C187.43 9.48615 189.243 8.58646 191.118 8.5901H275.841C276.52 8.5901 277.171 8.95207 277.652 9.59639C278.132 10.2407 278.401 11.1146 278.401 12.0258Z" fill="#1F75FE"/>
<path opacity="0.6" d="M278.401 12.0258V45.7986C278.397 46.2356 278.326 46.6667 278.193 47.0657C278.06 47.4647 277.868 47.8231 277.629 48.1189C277.389 48.4148 277.107 48.642 276.8 48.7865C276.492 48.931 276.166 48.9899 275.841 48.9594H190.856C190.856 48.9594 181.032 42.8095 181.761 34.2203C182.318 27.349 182.894 21.7746 183.368 17.5229C183.648 15.035 184.585 12.7649 186.007 11.1255C187.43 9.48615 189.243 8.58646 191.118 8.5901H275.841C276.52 8.5901 277.171 8.95207 277.652 9.59639C278.132 10.2407 278.401 11.1146 278.401 12.0258Z" fill="white"/>
<path opacity="0.2" d="M278.4 12.0258V45.7986C278.396 46.2356 278.325 46.6668 278.192 47.0657C278.059 47.4647 277.867 47.8231 277.627 48.119C277.388 48.4148 277.106 48.642 276.798 48.7865C276.491 48.931 276.165 48.9899 275.84 48.9595H268.346C268.346 48.9595 258.515 42.8096 259.2 34.2204C259.757 27.349 260.333 21.7746 260.807 17.5229C261.087 15.0225 262.031 12.742 263.464 11.1009C264.898 9.4597 266.724 8.56814 268.608 8.59012H275.84C276.519 8.59012 277.17 8.95209 277.65 9.59641C278.13 10.2407 278.4 11.1146 278.4 12.0258Z" fill="black"/>
<path d="M183.682 36.9346H257.922C257.922 36.9346 260.373 44.2354 264.533 47.2416H192.002C192.002 47.2416 184.322 42.5176 183.682 36.9346Z" fill="#1F75FE"/>
<path opacity="0.2" d="M183.682 36.9346H257.922C257.922 36.9346 260.373 44.2354 264.533 47.2416H192.002C192.002 47.2416 184.322 42.5176 183.682 36.9346Z" fill="black"/>
<path d="M188.801 43.8059H260.481L259.412 47.2416H188.801V43.8059Z" fill="#1F75FE"/>
<path d="M186.24 39.5114H257.92L256.851 42.947H186.24V39.5114Z" fill="#1F75FE"/>
<path d="M255.362 34.3578H253.551V35.3627H255.362V34.3578Z" fill="#1F75FE"/>
<path d="M252.796 34.3578H250.984V35.3627H252.796V34.3578Z" fill="#1F75FE"/>
<path d="M177.793 30.6128C177.611 30.373 177.467 30.0869 177.368 29.7713C177.27 29.4558 177.219 29.117 177.219 28.7747C177.219 28.4325 177.27 28.0937 177.368 27.7781C177.467 27.4625 177.611 27.1765 177.793 26.9366" stroke="#1F75FE" stroke-linecap="round" stroke-linejoin="round"/>
<path d="M176.788 31.97C176.474 31.551 176.226 31.0531 176.056 30.5047C175.886 29.9564 175.799 29.3685 175.799 28.7748C175.799 28.181 175.886 27.5931 176.056 27.0448C176.226 26.4965 176.474 25.9986 176.788 25.5796" stroke="#1F75FE" stroke-width="1.05659" stroke-linecap="round" stroke-linejoin="round"/>
<path d="M175.854 33.224C175.417 32.6406 175.071 31.9473 174.835 31.1837C174.598 30.4202 174.477 29.6016 174.477 28.7748C174.477 27.948 174.598 27.1293 174.835 26.3658C175.071 25.6023 175.417 24.9089 175.854 24.3256" stroke="#1F75FE" stroke-linecap="round" stroke-linejoin="round"/>
<path d="M179.105 29.5048C179.405 29.5048 179.649 29.178 179.649 28.7748C179.649 28.3715 179.405 28.0447 179.105 28.0447C178.804 28.0447 178.561 28.3715 178.561 28.7748C178.561 29.178 178.804 29.5048 179.105 29.5048Z" fill="#1F75FE"/>
<path d="M32 223.319V310.929H36.48V236.203H111.36V310.929H117.12V223.319H32Z" fill="#263238"/>
<path opacity="0.3" d="M32 223.319V310.929H36.48V236.203H111.36V310.929H117.12V223.319H32Z" fill="black"/>
<path opacity="0.4" d="M32 223.319V310.929H36.48V236.203H111.36V310.929H117.12V223.319H32Z" fill="white"/>
<path d="M75.5195 223.319V310.929H79.9995V236.203H154.88V310.929H160.64V223.319H75.5195Z" fill="#263238"/>
<path opacity="0.5" d="M75.5195 223.319V310.929H79.9995V236.203H154.88V310.929H160.64V223.319H75.5195Z" fill="white"/>
<path d="M152.577 162.928H127.885C126.298 162.928 125.012 164.655 125.012 166.785V219.462C125.012 221.592 126.298 223.319 127.885 223.319H152.577C154.164 223.319 155.45 221.592 155.45 219.462V166.785C155.45 164.655 154.164 162.928 152.577 162.928Z" fill="#263238"/>
<path opacity="0.1" d="M152.577 162.928H127.885C126.298 162.928 125.012 164.655 125.012 166.785V219.462C125.012 221.592 126.298 223.319 127.885 223.319H152.577C154.164 223.319 155.45 221.592 155.45 219.462V166.785C155.45 164.655 154.164 162.928 152.577 162.928Z" fill="white"/>
<path opacity="0.1" d="M152.576 162.928H144.743C143.156 162.928 141.869 164.655 141.869 166.785V219.462C141.869 221.592 143.156 223.319 144.743 223.319H152.576C154.163 223.319 155.45 221.592 155.45 219.462V166.785C155.45 164.655 154.163 162.928 152.576 162.928Z" fill="white"/>
<path opacity="0.3" d="M149.12 181.593C148.218 181.594 147.335 181.236 146.583 180.565C145.832 179.893 145.246 178.937 144.9 177.818C144.554 176.699 144.462 175.467 144.638 174.279C144.813 173.09 145.247 171.998 145.885 171.141C146.523 170.284 147.336 169.7 148.221 169.463C149.107 169.226 150.025 169.346 150.859 169.81C151.693 170.273 152.406 171.058 152.908 172.065C153.409 173.072 153.677 174.257 153.677 175.468C153.675 177.09 153.195 178.646 152.341 179.793C151.487 180.941 150.329 181.588 149.12 181.593Z" fill="black"/>
<path opacity="0.2" d="M153.082 175.468C153.082 176.527 152.848 177.561 152.41 178.441C151.972 179.321 151.349 180.007 150.62 180.412C149.892 180.817 149.09 180.923 148.317 180.717C147.543 180.51 146.833 180.001 146.275 179.252C145.718 178.504 145.338 177.55 145.184 176.512C145.03 175.474 145.109 174.398 145.411 173.421C145.713 172.443 146.224 171.607 146.879 171.019C147.535 170.431 148.306 170.117 149.095 170.117C150.152 170.117 151.166 170.681 151.914 171.685C152.662 172.688 153.082 174.049 153.082 175.468Z" fill="white"/>
<path opacity="0.3" d="M150.695 175.468C150.696 175.999 150.58 176.518 150.361 176.96C150.142 177.402 149.83 177.747 149.465 177.951C149.1 178.155 148.698 178.209 148.31 178.106C147.922 178.003 147.566 177.747 147.286 177.372C147.006 176.997 146.816 176.518 146.739 175.998C146.662 175.477 146.702 174.938 146.854 174.447C147.006 173.957 147.263 173.539 147.593 173.245C147.922 172.951 148.309 172.795 148.704 172.797C149.232 172.799 149.737 173.082 150.11 173.582C150.483 174.082 150.693 174.761 150.695 175.468Z" fill="black"/>
<path opacity="0.2" d="M150.336 175.468C150.336 175.902 150.241 176.325 150.061 176.685C149.882 177.045 149.627 177.326 149.329 177.492C149.031 177.658 148.702 177.701 148.386 177.617C148.069 177.532 147.779 177.323 147.55 177.017C147.322 176.711 147.167 176.321 147.104 175.896C147.041 175.471 147.073 175.03 147.196 174.63C147.32 174.23 147.529 173.888 147.798 173.647C148.066 173.407 148.381 173.278 148.704 173.278C149.137 173.278 149.552 173.509 149.858 173.92C150.164 174.33 150.336 174.888 150.336 175.468Z" fill="white"/>
<path opacity="0.3" d="M149.12 200.489C148.107 200.489 147.117 200.086 146.275 199.331C145.434 198.576 144.777 197.503 144.39 196.247C144.002 194.991 143.901 193.61 144.098 192.277C144.296 190.944 144.784 189.72 145.5 188.759C146.216 187.798 147.128 187.143 148.121 186.878C149.114 186.613 150.144 186.749 151.079 187.269C152.015 187.789 152.815 188.67 153.377 189.8C153.94 190.93 154.24 192.258 154.24 193.617C154.24 195.44 153.701 197.188 152.74 198.476C151.78 199.765 150.478 200.489 149.12 200.489Z" fill="black"/>
<path opacity="0.2" d="M153.548 193.652C153.548 194.841 153.285 196.003 152.793 196.992C152.301 197.981 151.601 198.752 150.782 199.207C149.964 199.662 149.063 199.781 148.194 199.549C147.325 199.317 146.527 198.744 145.9 197.903C145.274 197.062 144.847 195.991 144.674 194.825C144.501 193.658 144.59 192.45 144.929 191.351C145.268 190.252 145.842 189.313 146.579 188.653C147.316 187.992 148.182 187.639 149.068 187.639C150.256 187.639 151.396 188.273 152.236 189.4C153.076 190.528 153.548 192.057 153.548 193.652Z" fill="white"/>
<path opacity="0.3" d="M150.886 193.652C150.886 194.243 150.755 194.821 150.511 195.312C150.266 195.804 149.918 196.187 149.511 196.413C149.104 196.64 148.656 196.699 148.224 196.583C147.792 196.468 147.395 196.183 147.084 195.765C146.772 195.347 146.56 194.815 146.474 194.235C146.389 193.655 146.433 193.054 146.601 192.508C146.77 191.962 147.055 191.495 147.421 191.167C147.788 190.838 148.218 190.663 148.659 190.663C149.25 190.663 149.816 190.978 150.234 191.538C150.651 192.099 150.886 192.859 150.886 193.652Z" fill="black"/>
<path opacity="0.2" d="M150.484 193.652C150.484 194.136 150.377 194.609 150.177 195.012C149.976 195.414 149.691 195.728 149.358 195.913C149.025 196.099 148.658 196.147 148.304 196.053C147.95 195.958 147.625 195.725 147.37 195.383C147.115 195.04 146.941 194.604 146.871 194.129C146.801 193.655 146.837 193.162 146.975 192.715C147.113 192.268 147.347 191.885 147.647 191.616C147.947 191.347 148.299 191.204 148.66 191.204C149.143 191.206 149.606 191.465 149.948 191.923C150.29 192.382 150.482 193.003 150.484 193.652Z" fill="white"/>
<path d="M119.297 201.949H77.332V223.319H119.297V201.949Z" fill="#263238"/>
<path d="M120.588 187.072H76.6523C76.0267 187.072 75.5195 187.753 75.5195 188.593V202.748C75.5195 203.587 76.0267 204.268 76.6523 204.268H120.588C121.214 204.268 121.721 203.587 121.721 202.748V188.593C121.721 187.753 121.214 187.072 120.588 187.072Z" fill="#263238"/>
<path opacity="0.2" d="M120.589 187.072H95.0019C94.3763 187.072 93.8691 187.753 93.8691 188.593V202.748C93.8691 203.587 94.3763 204.268 95.0019 204.268H120.589C121.215 204.268 121.722 203.587 121.722 202.748V188.593C121.722 187.753 121.215 187.072 120.589 187.072Z" fill="white"/>
<path d="M120.588 205.118H76.6523C76.0267 205.118 75.5195 205.799 75.5195 206.639V220.794C75.5195 221.633 76.0267 222.314 76.6523 222.314H120.588C121.214 222.314 121.721 221.633 121.721 220.794V206.639C121.721 205.799 121.214 205.118 120.588 205.118Z" fill="#263238"/>
<path opacity="0.2" d="M120.589 205.118H95.0019C94.3763 205.118 93.8691 205.799 93.8691 206.639V220.794C93.8691 221.633 94.3763 222.314 95.0019 222.314H120.589C121.215 222.314 121.722 221.633 121.722 220.794V206.639C121.722 205.799 121.215 205.118 120.589 205.118Z" fill="white"/>
<path opacity="0.1" d="M120.588 187.072H76.6523C76.0267 187.072 75.5195 187.753 75.5195 188.593V202.748C75.5195 203.587 76.0267 204.268 76.6523 204.268H120.588C121.214 204.268 121.721 203.587 121.721 202.748V188.593C121.721 187.753 121.214 187.072 120.588 187.072Z" fill="white"/>
<path opacity="0.1" d="M120.588 205.118H76.6523C76.0267 205.118 75.5195 205.799 75.5195 206.639V220.794C75.5195 221.633 76.0267 222.314 76.6523 222.314H120.588C121.214 222.314 121.721 221.633 121.721 220.794V206.639C121.721 205.799 121.214 205.118 120.588 205.118Z" fill="white"/>
<path d="M113.421 193.257H103.789V199.398H113.421V193.257Z" fill="#1F75FE"/>
<path opacity="0.3" d="M114.24 192.759H102.932V199.862H114.24V192.759Z" fill="black"/>
<path d="M102.988 213.948C102.988 214.728 102.816 215.49 102.493 216.138C102.171 216.787 101.712 217.292 101.175 217.59C100.638 217.889 100.048 217.967 99.4778 217.815C98.9079 217.663 98.3845 217.287 97.9737 216.736C97.5629 216.185 97.2831 215.482 97.1697 214.717C97.0564 213.953 97.1145 213.16 97.3369 212.439C97.5592 211.719 97.9358 211.103 98.4188 210.67C98.9019 210.237 99.4699 210.006 100.051 210.006C100.83 210.006 101.577 210.421 102.128 211.16C102.679 211.9 102.988 212.903 102.988 213.948Z" fill="#263238"/>
<path d="M104.27 213.948C104.27 214.728 104.097 215.49 103.775 216.138C103.452 216.787 102.993 217.292 102.456 217.59C101.92 217.889 101.329 217.967 100.759 217.815C100.189 217.663 99.6658 217.287 99.2549 216.736C98.8441 216.185 98.5643 215.482 98.451 214.717C98.3376 213.953 98.3958 213.16 98.6181 212.439C98.8405 211.719 99.217 211.103 99.7001 210.67C100.183 210.237 100.751 210.006 101.332 210.006C101.718 210.005 102.101 210.106 102.457 210.303C102.814 210.501 103.138 210.792 103.411 211.158C103.684 211.524 103.901 211.959 104.048 212.438C104.195 212.917 104.271 213.43 104.27 213.948Z" fill="#263238"/>
<path opacity="0.5" d="M104.27 213.948C104.27 214.728 104.097 215.49 103.775 216.138C103.452 216.787 102.993 217.292 102.456 217.59C101.92 217.889 101.329 217.967 100.759 217.815C100.189 217.663 99.6658 217.287 99.2549 216.736C98.8441 216.185 98.5643 215.482 98.451 214.717C98.3376 213.953 98.3958 213.16 98.6181 212.439C98.8405 211.719 99.217 211.103 99.7001 210.67C100.183 210.237 100.751 210.006 101.332 210.006C101.718 210.005 102.101 210.106 102.457 210.303C102.814 210.501 103.138 210.792 103.411 211.158C103.684 211.524 103.901 211.959 104.048 212.438C104.195 212.917 104.271 213.43 104.27 213.948Z" fill="white"/>
<path d="M119.636 213.948C119.635 214.726 119.462 215.486 119.139 216.131C118.816 216.777 118.358 217.28 117.822 217.576C117.286 217.873 116.697 217.95 116.129 217.797C115.561 217.644 115.039 217.269 114.63 216.718C114.22 216.168 113.942 215.467 113.829 214.704C113.717 213.941 113.775 213.15 113.997 212.432C114.219 211.714 114.595 211.1 115.077 210.668C115.559 210.236 116.125 210.006 116.705 210.006C117.09 210.006 117.472 210.108 117.828 210.306C118.184 210.504 118.507 210.795 118.78 211.161C119.052 211.527 119.268 211.962 119.415 212.44C119.561 212.918 119.637 213.431 119.636 213.948Z" fill="#263238"/>
<path d="M120.915 213.948C120.914 214.726 120.741 215.486 120.418 216.131C120.095 216.777 119.637 217.28 119.101 217.576C118.566 217.873 117.976 217.95 117.408 217.797C116.84 217.644 116.318 217.269 115.909 216.718C115.5 216.168 115.221 215.467 115.109 214.704C114.996 213.941 115.054 213.15 115.276 212.432C115.499 211.714 115.874 211.1 116.356 210.668C116.838 210.236 117.404 210.006 117.984 210.006C118.369 210.006 118.751 210.108 119.107 210.306C119.463 210.504 119.787 210.795 120.059 211.161C120.331 211.527 120.547 211.962 120.694 212.44C120.841 212.918 120.916 213.431 120.915 213.948Z" fill="#263238"/>
<path opacity="0.5" d="M120.915 213.948C120.914 214.726 120.741 215.486 120.418 216.131C120.095 216.777 119.637 217.28 119.101 217.576C118.566 217.873 117.976 217.95 117.408 217.797C116.84 217.644 116.318 217.269 115.909 216.718C115.5 216.168 115.221 215.467 115.109 214.704C114.996 213.941 115.054 213.15 115.276 212.432C115.499 211.714 115.874 211.1 116.356 210.668C116.838 210.236 117.404 210.006 117.984 210.006C118.369 210.006 118.751 210.108 119.107 210.306C119.463 210.504 119.787 210.795 120.059 211.161C120.331 211.527 120.547 211.962 120.694 212.44C120.841 212.918 120.916 213.431 120.915 213.948Z" fill="white"/>
<path opacity="0.5" d="M106.638 213.158H105.332V214.91H106.638V213.158Z" fill="white"/>
<path opacity="0.5" d="M108.448 213.158H107.143V214.91H108.448V213.158Z" fill="white"/>
<path opacity="0.5" d="M110.253 213.158H108.947V214.91H110.253V213.158Z" fill="white"/>
<path opacity="0.5" d="M112.063 213.158H110.758V214.91H112.063V213.158Z" fill="white"/>
<path d="M68.096 162.928H43.4048C41.8178 162.928 40.5312 164.655 40.5312 166.785V219.462C40.5312 221.592 41.8178 223.319 43.4048 223.319H68.096C69.6831 223.319 70.9696 221.592 70.9696 219.462V166.785C70.9696 164.655 69.6831 162.928 68.096 162.928Z" fill="#263238"/>
<path opacity="0.1" d="M68.096 162.928H43.4048C41.8178 162.928 40.5312 164.655 40.5312 166.785V219.462C40.5312 221.592 41.8178 223.319 43.4048 223.319H68.096C69.6831 223.319 70.9696 221.592 70.9696 219.462V166.785C70.9696 164.655 69.6831 162.928 68.096 162.928Z" fill="white"/>
<path opacity="0.1" d="M68.0959 162.928H60.2623C58.6752 162.928 57.3887 164.655 57.3887 166.785V219.462C57.3887 221.592 58.6752 223.319 60.2623 223.319H68.0959C69.6829 223.319 70.9695 221.592 70.9695 219.462V166.785C70.9695 164.655 69.6829 162.928 68.0959 162.928Z" fill="white"/>
<path opacity="0.3" d="M64.6399 181.593C63.7371 181.594 62.8543 181.236 62.103 180.565C61.3517 179.893 60.7659 178.937 60.4195 177.818C60.0732 176.699 59.9819 175.467 60.1572 174.279C60.3326 173.09 60.7667 171.998 61.4046 171.141C62.0425 170.284 62.8556 169.7 63.7409 169.463C64.6263 169.226 65.5441 169.346 66.3783 169.81C67.2125 170.273 67.9255 171.058 68.4272 172.065C68.9289 173.072 69.1967 174.257 69.1967 175.468C69.195 177.09 68.7146 178.646 67.8606 179.793C67.0066 180.941 65.8485 181.588 64.6399 181.593Z" fill="black"/>
<path opacity="0.2" d="M68.6014 175.468C68.6014 176.527 68.3675 177.561 67.9294 178.441C67.4913 179.321 66.8686 180.007 66.14 180.412C65.4114 180.817 64.6097 180.923 63.8363 180.717C63.0629 180.51 62.3524 180.001 61.7948 179.252C61.2372 178.504 60.8574 177.55 60.7036 176.512C60.5497 175.474 60.6287 174.398 60.9305 173.421C61.2322 172.443 61.7433 171.607 62.399 171.019C63.0547 170.431 63.8256 170.117 64.6142 170.117C65.6716 170.117 66.6858 170.681 67.4335 171.685C68.1813 172.688 68.6014 174.049 68.6014 175.468Z" fill="white"/>
<path opacity="0.3" d="M66.2143 175.468C66.2156 175.999 66.0994 176.518 65.8804 176.96C65.6615 177.402 65.3497 177.747 64.9846 177.951C64.6195 178.155 64.2174 178.209 63.8295 178.106C63.4416 178.003 63.0852 177.747 62.8056 177.372C62.5259 176.997 62.3356 176.518 62.2588 175.998C62.1819 175.477 62.222 174.938 62.3739 174.447C62.5259 173.957 62.7828 173.539 63.1121 173.245C63.4415 172.951 63.8284 172.795 64.2239 172.797C64.7513 172.799 65.2565 173.082 65.6295 173.582C66.0024 174.082 66.2126 174.761 66.2143 175.468Z" fill="black"/>
<path opacity="0.2" d="M65.8558 175.468C65.8558 175.902 65.7601 176.325 65.5808 176.685C65.4014 177.045 65.1465 177.326 64.8483 177.492C64.5501 177.658 64.222 177.701 63.9054 177.617C63.5888 177.532 63.298 177.323 63.0698 177.017C62.8416 176.711 62.6861 176.321 62.6232 175.896C62.5602 175.471 62.5925 175.03 62.716 174.63C62.8395 174.23 63.0487 173.888 63.3171 173.647C63.5855 173.407 63.901 173.278 64.2238 173.278C64.6566 173.278 65.0717 173.509 65.3778 173.92C65.6839 174.33 65.8558 174.888 65.8558 175.468Z" fill="white"/>
<path opacity="0.3" d="M64.6395 200.489C63.6269 200.489 62.637 200.086 61.795 199.331C60.953 198.576 60.2968 197.503 59.9093 196.247C59.5217 194.991 59.4204 193.61 59.6179 192.277C59.8155 190.944 60.3031 189.72 61.0191 188.759C61.7352 187.798 62.6475 187.143 63.6407 186.878C64.6339 186.613 65.6633 186.749 66.5989 187.269C67.5344 187.789 68.3341 188.67 68.8967 189.8C69.4593 190.93 69.7595 192.258 69.7595 193.617C69.7595 195.44 69.2201 197.188 68.2599 198.476C67.2997 199.765 65.9974 200.489 64.6395 200.489Z" fill="black"/>
<path opacity="0.2" d="M69.0694 193.652C69.0694 194.841 68.8066 196.003 68.3144 196.992C67.8221 197.981 67.1224 198.752 66.3038 199.207C65.4852 199.662 64.5844 199.781 63.7154 199.549C62.8463 199.317 62.0481 198.744 61.4215 197.903C60.795 197.062 60.3683 195.991 60.1955 194.825C60.0226 193.658 60.1113 192.45 60.4504 191.351C60.7895 190.252 61.3637 189.313 62.1004 188.653C62.8372 187.992 63.7033 187.639 64.5894 187.639C65.7775 187.639 66.9171 188.273 67.7572 189.4C68.5974 190.528 69.0694 192.057 69.0694 193.652Z" fill="white"/>
<path opacity="0.3" d="M66.4056 193.652C66.4056 194.243 66.275 194.821 66.0302 195.312C65.7855 195.804 65.4377 196.187 65.0307 196.413C64.6237 196.64 64.1759 196.699 63.7439 196.583C63.3118 196.468 62.915 196.183 62.6035 195.765C62.292 195.347 62.0799 194.815 61.994 194.235C61.908 193.655 61.9521 193.054 62.1207 192.508C62.2893 191.962 62.5747 191.495 62.941 191.167C63.3073 190.838 63.7379 190.663 64.1784 190.663C64.7691 190.663 65.3356 190.978 65.7532 191.538C66.1709 192.099 66.4056 192.859 66.4056 193.652Z" fill="black"/>
<path opacity="0.2" d="M66.0035 193.652C66.0035 194.136 65.8965 194.609 65.6961 195.012C65.4956 195.414 65.2108 195.728 64.8775 195.913C64.5442 196.099 64.1774 196.147 63.8236 196.053C63.4698 195.958 63.1448 195.725 62.8897 195.383C62.6346 195.04 62.4609 194.604 62.3905 194.129C62.3201 193.655 62.3563 193.162 62.4943 192.715C62.6324 192.268 62.8662 191.885 63.1661 191.616C63.4661 191.347 63.8187 191.204 64.1795 191.204C64.6627 191.206 65.1257 191.465 65.4674 191.923C65.8091 192.382 66.0018 193.003 66.0035 193.652Z" fill="white"/>
<path d="M99.8398 179.127C100.019 178.882 100.232 178.687 100.468 178.554C100.704 178.421 100.957 178.352 101.213 178.352C101.468 178.352 101.722 178.421 101.957 178.554C102.193 178.687 102.407 178.882 102.585 179.127" stroke="#1F75FE" stroke-linecap="round" stroke-linejoin="round"/>
<path d="M98.8281 177.796C99.4603 176.951 100.316 176.476 101.209 176.476C102.101 176.476 102.958 176.951 103.59 177.796" stroke="#1F75FE" stroke-width="1.05659" stroke-linecap="round" stroke-linejoin="round"/>
<path d="M97.9199 176.516C98.8006 175.337 99.9941 174.674 101.238 174.674C102.483 174.674 103.676 175.337 104.557 176.516" stroke="#1F75FE" stroke-linecap="round" stroke-linejoin="round"/>
<path d="M101.761 180.88C101.762 181.026 101.731 181.17 101.671 181.293C101.611 181.416 101.525 181.512 101.424 181.569C101.323 181.626 101.212 181.641 101.105 181.613C100.997 181.585 100.899 181.514 100.821 181.41C100.744 181.307 100.691 181.174 100.67 181.03C100.649 180.886 100.661 180.737 100.703 180.602C100.746 180.466 100.817 180.351 100.909 180.27C101 180.19 101.108 180.148 101.217 180.15C101.361 180.15 101.5 180.226 101.602 180.363C101.704 180.5 101.761 180.686 101.761 180.88Z" fill="#1F75FE"/>
<path d="M194.906 234.263H156.359C152.248 234.263 148.916 238.735 148.916 244.252V284.922C148.916 290.439 152.248 294.912 156.359 294.912H194.906C199.017 294.912 202.35 290.439 202.35 284.922V244.252C202.35 238.735 199.017 234.263 194.906 234.263Z" fill="#1F75FE"/>
<path opacity="0.1" d="M194.906 234.263H156.359C152.248 234.263 148.916 238.735 148.916 244.252V284.922C148.916 290.439 152.248 294.912 156.359 294.912H194.906C199.017 294.912 202.35 290.439 202.35 284.922V244.252C202.35 238.735 199.017 234.263 194.906 234.263Z" fill="white"/>
<path opacity="0.2" d="M156.353 294.92C154.38 294.918 152.488 293.864 151.094 291.991C149.699 290.118 148.916 287.579 148.916 284.931V244.252C148.916 241.605 149.699 239.065 151.094 237.192C152.488 235.319 154.38 234.265 156.353 234.263C158.327 234.263 160.22 235.316 161.616 237.189C163.012 239.062 163.796 241.603 163.796 244.252V284.931C163.796 287.58 163.012 290.121 161.616 291.994C160.22 293.868 158.327 294.92 156.353 294.92Z" fill="white"/>
<path d="M63.9998 292.524L61.7598 310.93H66.5598L70.9694 293.374L63.9998 292.524Z" fill="#263238"/>
<path d="M129.53 292.524L131.77 310.93H126.97L122.561 293.374L129.53 292.524Z" fill="#263238"/>
<path opacity="0.1" d="M63.9998 292.524L61.7598 310.93H66.5598L70.9694 293.374L63.9998 292.524Z" fill="white"/>
<path opacity="0.1" d="M129.53 292.524L131.77 310.93H126.97L122.561 293.374L129.53 292.524Z" fill="white"/>
<path d="M197.76 292.524L195.52 310.93H200.32L204.729 293.374L197.76 292.524Z" fill="#263238"/>
<path d="M263.29 292.524L265.53 310.93H260.73L256.32 293.374L263.29 292.524Z" fill="#263238"/>
<path d="M267.111 253.383H59.93C56.8761 253.383 54.4004 256.705 54.4004 260.804V289.767C54.4004 293.865 56.8761 297.188 59.93 297.188H267.111C270.165 297.188 272.64 293.865 272.64 289.767V260.804C272.64 256.705 270.165 253.383 267.111 253.383Z" fill="#1F75FE"/>
<path opacity="0.1" d="M267.111 253.383H59.93C56.8761 253.383 54.4004 256.705 54.4004 260.804V289.767C54.4004 293.865 56.8761 297.188 59.93 297.188H267.111C270.165 297.188 272.64 293.865 272.64 289.767V260.804C272.64 256.705 270.165 253.383 267.111 253.383Z" fill="white"/>
<path opacity="0.2" d="M131.431 253.383H59.93C56.8761 253.383 54.4004 256.705 54.4004 260.804V289.767C54.4004 293.865 56.8761 297.188 59.93 297.188H131.431C134.485 297.188 136.96 293.865 136.96 289.767V260.804C136.96 256.705 134.485 253.383 131.431 253.383Z" fill="white"/>
<path d="M190.721 254.396H269.441L281.434 171.27C281.741 169.134 281.692 166.934 281.291 164.828C280.889 162.721 280.145 160.759 279.112 159.084C278.078 157.409 276.781 156.062 275.314 155.139C273.847 154.217 272.245 153.741 270.625 153.748H214.266C211.723 153.757 209.262 154.951 207.302 157.125C205.342 159.299 204.006 162.32 203.521 165.67L190.721 254.396Z" fill="#1F75FE"/>
<path d="M190.719 254.397H269.439L281.432 171.271C281.739 169.135 281.69 166.935 281.289 164.828C280.887 162.722 280.143 160.76 279.11 159.085C278.076 157.41 276.779 156.063 275.312 155.14C273.845 154.217 272.243 153.742 270.623 153.749H214.264C211.722 153.758 209.26 154.951 207.3 157.126C205.34 159.3 204.004 162.32 203.519 165.671L190.719 254.397Z" fill="white"/>
<path opacity="0.2" d="M190.721 254.242H247.041L259.841 165.592C260.329 162.242 261.674 159.225 263.643 157.063C265.612 154.901 268.081 153.728 270.625 153.748H214.266C211.728 153.741 209.267 154.92 207.306 157.083C205.345 159.246 204.007 162.258 203.521 165.601L190.721 254.242Z" fill="white"/>
<path d="M278.156 234.263H239.609C235.498 234.263 232.166 238.735 232.166 244.252V284.922C232.166 290.439 235.498 294.912 239.609 294.912H278.156C282.267 294.912 285.6 290.439 285.6 284.922V244.252C285.6 238.735 282.267 234.263 278.156 234.263Z" fill="#1F75FE"/>
<path opacity="0.1" d="M278.156 234.263H239.609C235.498 234.263 232.166 238.735 232.166 244.252V284.922C232.166 290.439 235.498 294.912 239.609 294.912H278.156C282.267 294.912 285.6 290.439 285.6 284.922V244.252C285.6 238.735 282.267 234.263 278.156 234.263Z" fill="white"/>
<path opacity="0.2" d="M239.603 294.92C237.63 294.918 235.738 293.864 234.344 291.991C232.949 290.118 232.166 287.579 232.166 284.931V244.252C232.166 241.605 232.949 239.065 234.344 237.192C235.738 235.319 237.63 234.265 239.603 234.263C241.576 234.265 243.467 235.319 244.862 237.192C246.256 239.065 247.04 241.605 247.04 244.252V284.931C247.04 287.579 246.256 290.118 244.862 291.991C243.467 293.864 241.576 294.918 239.603 294.92Z" fill="white"/>
<path d="M207.429 245.336C207.429 245.336 201.388 256.82 192.069 255.961C174.616 254.354 153.407 221.604 150.847 221.32C146.796 220.865 113.087 245.37 113.087 245.37L106.879 236.059C106.879 236.059 143.135 197.657 151.039 197.03C158.943 196.403 207.429 245.336 207.429 245.336Z" fill="#1F75FE"/>
<path opacity="0.6" d="M207.519 245.336C207.469 245.392 207.429 245.461 207.402 245.54C207.374 245.618 207.359 245.704 207.359 245.791C205.566 248.809 203.345 251.319 200.825 253.178C198.179 255.229 195.145 256.196 192.095 255.961C174.642 254.354 153.413 221.604 150.853 221.32C146.802 220.865 113.093 245.37 113.093 245.37L106.879 236.059C106.879 236.059 120.959 221.174 133.445 209.785C141.029 202.914 148.05 197.27 151.033 197.03C158.367 196.454 200.684 238.533 206.745 244.606C207.225 245.078 207.519 245.336 207.519 245.336Z" fill="white"/>
<path d="M197.709 155.767C197.709 155.767 194.278 155.681 194.163 156.497C194.048 157.313 194.266 164.039 194.72 164.984C195.224 165.837 195.797 166.612 196.429 167.294L193.92 177.318L198.15 180.195L200.006 169.27C200.006 169.27 202.106 166.512 201.491 163.017C200.877 159.521 197.709 155.767 197.709 155.767Z" fill="#EEC1BB"/>
<path opacity="0.2" d="M197.709 155.767C197.709 155.767 194.278 155.681 194.163 156.497C194.048 157.313 194.266 164.039 194.72 164.984C195.224 165.837 195.797 166.612 196.429 167.294L193.92 177.318L198.15 180.195L200.006 169.27C200.006 169.27 202.106 166.512 201.491 163.017C200.877 159.521 197.709 155.767 197.709 155.767Z" fill="black"/>
<path d="M193.279 177.447L194.322 174.492L199.494 177.447L199.154 181.02L193.279 177.447Z" fill="#263238"/>
<path d="M212.16 168.78C207.04 168.926 198.291 196.412 198.291 196.412C198.291 196.412 200.268 182.952 199.814 181.38C199.36 179.809 194.988 175.935 192.64 176.794C190.291 177.653 185.28 199.778 188.8 207.543C192.32 215.308 198.828 217.163 207.891 209.003C216.953 200.844 212.16 168.78 212.16 168.78Z" fill="#263238"/>
<path opacity="0.3" d="M208.638 208.247C208.402 208.514 208.152 208.737 207.896 208.978C202.699 213.65 198.347 214.732 194.91 213.873C193.628 213.414 192.428 212.615 191.38 211.521C190.332 210.428 189.459 209.064 188.811 207.509C185.291 199.778 190.302 177.635 192.651 176.777C195 175.918 199.371 179.791 199.826 181.372C200.28 182.952 198.398 195.836 198.296 196.394C198.565 195.535 207.115 168.909 212.158 168.78C212.158 168.78 216.69 199.04 208.638 208.247Z" fill="black"/>
<path opacity="0.2" d="M208.638 208.247C208.401 208.516 208.153 208.769 207.896 209.003C202.699 213.676 198.347 215.067 194.91 213.934C202.136 209.278 207.55 197.03 207.55 197.03L208.638 208.247Z" fill="black"/>
<path d="M220.62 168.067C220.62 168.067 223.135 161.9 232.844 164.339C242.553 166.779 240.678 171.889 237.555 173.693C234.431 175.497 223.206 173.693 223.206 173.693C223.206 173.693 219.993 170.352 220.62 168.067Z" fill="#263238"/>
<path opacity="0.2" d="M220.62 168.067C220.62 168.067 223.135 161.9 232.844 164.339C242.553 166.779 240.678 171.889 237.555 173.693C234.431 175.497 223.206 173.693 223.206 173.693C223.206 173.693 219.993 170.352 220.62 168.067Z" fill="black"/>
<path d="M193.279 226.431C193.279 226.431 203.039 217.532 206.079 204.099C209.119 190.665 212.159 168.771 212.159 168.771C212.159 168.771 226.719 163.833 240.799 170.919C254.879 178.005 239.084 239.813 226.137 246.341L193.279 226.431Z" fill="#263238"/>
<path d="M234.61 151.696C233.33 156.85 231.647 166.427 234.072 170.438C232.757 171.849 231.246 172.897 229.626 173.519C228.007 174.141 226.312 174.326 224.639 174.062C219.564 173.358 221.842 168.351 221.842 168.351C226.373 167.689 226.674 163.283 226.322 159.04L234.61 151.696Z" fill="#EEC1BB"/>
<path opacity="0.2" d="M231.212 154.694L226.271 159.04C226.37 160.027 226.404 161.025 226.374 162.02C228.089 162.02 230.63 159.899 231.033 157.571C231.223 156.635 231.284 155.659 231.212 154.694Z" fill="black"/>
<path d="M226.56 136.064C228.525 138.494 227.155 141.664 221.632 145.95C220.013 142.059 220.435 135.213 222.214 133.822C223.993 132.43 224.845 133.994 226.56 136.064Z" fill="#263238"/>
<path d="M235.34 143.442C234.584 148.673 234.2 152.349 232.837 155.2C232.319 156.269 231.67 157.213 230.917 157.992C226.316 162.81 220.037 158.361 219.468 150.983C219.468 150.751 219.436 150.511 219.429 150.27C219.084 143.614 220.914 133.753 226.232 131.898C227.445 131.463 228.721 131.452 229.938 131.865C231.155 132.278 232.273 133.103 233.186 134.26C234.099 135.417 234.776 136.868 235.153 138.475C235.53 140.082 235.594 141.792 235.34 143.442Z" fill="#EEC1BB"/>
<path opacity="0.3" d="M232.838 155.157C232.319 156.226 231.67 157.17 230.918 157.949C226.316 162.768 220.038 158.318 219.468 150.94C219.468 150.708 219.436 150.468 219.43 150.227C220.428 150.975 221.823 151.816 222.873 151.696C224.71 151.498 226.675 149.806 227.948 149.265C228.734 149.002 229.553 148.973 230.348 149.179C230.348 149.179 232.39 147.462 232.908 144.885L233.42 146.379C233.722 149.327 233.523 152.328 232.838 155.157Z" fill="black"/>
<path d="M227.2 143.957C227.142 144.541 226.86 144.971 226.56 144.919C226.259 144.868 226.092 144.361 226.15 143.777C226.208 143.193 226.483 142.763 226.79 142.806C227.097 142.849 227.2 143.382 227.2 143.957Z" fill="#263238"/>
<path d="M222.226 143.098C222.168 143.682 221.893 144.112 221.586 144.06C221.278 144.009 221.112 143.502 221.169 142.909C221.227 142.317 221.502 141.896 221.809 141.947C222.117 141.999 222.283 142.514 222.226 143.098Z" fill="#263238"/>
<path d="M223.814 143.656C223.124 145.348 222.263 146.904 221.254 148.277C221.525 148.611 221.847 148.861 222.197 149.01C222.548 149.158 222.918 149.201 223.283 149.136L223.814 143.656Z" fill="#D58745"/>
<path d="M228.729 142.102C228.782 142.131 228.842 142.131 228.895 142.102C228.954 142.055 228.997 141.98 229.016 141.893C229.035 141.805 229.028 141.711 228.998 141.629C228.805 141.15 228.531 140.739 228.197 140.43C227.863 140.121 227.48 139.923 227.078 139.852C227.045 139.847 227.012 139.851 226.981 139.864C226.95 139.876 226.921 139.897 226.896 139.925C226.87 139.953 226.85 139.988 226.835 140.027C226.82 140.066 226.811 140.108 226.809 140.152C226.807 140.242 226.83 140.33 226.874 140.399C226.917 140.467 226.979 140.511 227.046 140.521C227.365 140.581 227.67 140.741 227.935 140.988C228.2 141.236 228.417 141.565 228.569 141.947C228.586 141.986 228.61 142.02 228.637 142.046C228.665 142.073 228.696 142.092 228.729 142.102Z" fill="#263238"/>
<path d="M220.197 140.461C220.245 140.469 220.294 140.459 220.338 140.431C220.382 140.404 220.42 140.361 220.446 140.307C220.617 139.938 220.851 139.628 221.128 139.403C221.405 139.177 221.717 139.043 222.04 139.01C222.108 139.01 222.173 138.974 222.221 138.909C222.269 138.845 222.296 138.757 222.296 138.666C222.302 138.578 222.283 138.49 222.242 138.42C222.202 138.35 222.143 138.303 222.078 138.288C221.669 138.319 221.27 138.482 220.917 138.763C220.564 139.044 220.267 139.435 220.05 139.903C220.013 139.978 220 140.07 220.013 140.159C220.026 140.247 220.064 140.325 220.12 140.375C220.142 140.41 220.168 140.439 220.197 140.461Z" fill="#263238"/>
<path d="M233.835 136.665C231.224 137.378 231.179 141.045 234.257 148.535C237.144 146.328 239.422 140.169 238.417 137.756C237.413 135.342 236.113 136.055 233.835 136.665Z" fill="#263238"/>
<path d="M237.323 149.583C237.056 150.411 236.669 151.161 236.186 151.789C235.703 152.416 235.132 152.91 234.507 153.242C232.824 154.101 231.819 152.143 232.145 149.901C232.433 147.874 233.662 144.988 235.416 145.091C237.169 145.194 237.982 147.53 237.323 149.583Z" fill="#EEC1BB"/>
<path d="M227.147 151.172C227.147 151.172 225.963 153.328 223.391 152.701" stroke="#263238" stroke-width="0.526291" stroke-linecap="round" stroke-linejoin="round"/>
<path d="M222.162 131.52C222.06 132.327 222.239 133.633 225.49 134.277C228.742 134.921 231.73 133.066 232.748 134.277C233.766 135.488 234.815 139.388 234.815 139.388L238.399 138.314C238.399 138.314 239.199 135.136 237.279 131.52C235.359 127.904 224.646 130.661 223.839 128.694C223.814 128.694 222.374 129.776 222.162 131.52Z" fill="#263238"/>
<path d="M102.649 253.367L100.166 247.32L109.459 236.841L111.936 242.888L102.649 253.367Z" fill="#EEC1BB"/>
<path opacity="0.2" d="M111.936 242.888L109.459 236.85L104.141 242.836L106.822 248.668L111.936 242.888Z" fill="black"/>
<path d="M111.909 248.539L104.574 236.978L107.877 232.074L115.736 244.958L111.909 248.539Z" fill="#1F75FE"/>
<path opacity="0.2" d="M111.909 248.539L104.574 236.978L107.877 232.074L115.736 244.958L111.909 248.539Z" fill="white"/>
<path d="M100.478 247.844H100.21C100.21 247.732 100.715 245.98 100.498 245.078C100.376 244.812 100.191 244.609 99.9728 244.503C99.8678 244.439 99.7512 244.418 99.6374 244.442C99.5237 244.467 99.4178 244.536 99.3328 244.64C99.1129 245.161 99.0423 245.772 99.1344 246.358C98.8208 245.748 98.3984 245.112 98.0336 245.061C97.9563 245.05 97.8782 245.066 97.8066 245.106C97.735 245.147 97.6722 245.211 97.624 245.293C97.5373 245.399 97.4741 245.536 97.4413 245.687C97.4086 245.839 97.4076 245.999 97.4384 246.152C97.5992 246.547 97.8604 246.852 98.1744 247.011C98.5836 247.279 99.0126 247.489 99.4544 247.638C99.4544 247.638 99.4544 247.638 99.4928 247.638C99.5312 247.638 99.4928 247.638 99.5312 247.638C99.5696 247.638 99.7296 247.732 99.7488 247.715L100.197 247.792L100.478 247.844ZM99.4416 244.846C99.4753 244.792 99.5223 244.757 99.574 244.746C99.6258 244.734 99.6787 244.749 99.7232 244.786H99.7808C99.8227 244.815 99.8596 244.855 99.8894 244.903C99.9191 244.952 99.941 245.009 99.9536 245.069C99.9811 245.817 99.826 246.556 99.512 247.174L99.4544 247.036C99.2628 246.33 99.2583 245.556 99.4416 244.846ZM97.6688 246.066C97.6496 245.967 97.6508 245.862 97.6722 245.764C97.6936 245.666 97.7344 245.577 97.7904 245.507C97.812 245.465 97.8422 245.432 97.8773 245.412C97.9125 245.393 97.9512 245.387 97.9888 245.396C98.3472 245.447 98.904 246.487 99.2688 247.311C98.36 246.95 97.7712 246.512 97.6688 246.066Z" fill="#1F75FE"/>
<path d="M100.204 247.165L105.324 250.756C105.368 250.782 105.407 250.821 105.44 250.868C105.473 250.915 105.498 250.971 105.515 251.032C105.531 251.092 105.539 251.157 105.537 251.222C105.535 251.286 105.523 251.35 105.503 251.408L103.634 257.017C103.524 257.302 103.334 257.516 103.106 257.612C102.878 257.709 102.63 257.68 102.418 257.532C100.645 256.244 99.8582 255.505 97.6118 253.899C96.2358 252.929 93.439 251.176 91.711 249.441C89.983 247.706 91.3014 245.465 92.1526 246.006C94.1622 247.251 97.4902 247.423 99.3014 246.968C99.6102 246.901 99.9267 246.971 100.204 247.165Z" fill="#263238"/>
<path d="M224.639 174.062C224.639 174.062 225.074 170.438 231.269 167.105C237.464 163.772 242.699 167.474 241.951 169.922C241.951 169.922 245.976 170.481 243.909 174.062C241.842 177.644 224.639 174.062 224.639 174.062Z" fill="#263238"/>
<path d="M223.206 173.693C222.771 172.406 222.615 170.981 222.755 169.58C222.895 168.18 223.327 166.861 224 165.774C224 165.774 223.072 163.489 221.235 165.774C221.248 165.774 213.881 168.299 223.206 173.693Z" fill="#263238"/>
<path opacity="0.2" d="M224.639 174.062C224.639 174.062 225.074 170.438 231.269 167.105C237.464 163.772 242.699 167.474 241.951 169.922C241.951 169.922 245.976 170.481 243.909 174.062C241.842 177.644 224.639 174.062 224.639 174.062Z" fill="black"/>
<path opacity="0.2" d="M223.206 173.693C222.771 172.406 222.615 170.981 222.755 169.58C222.895 168.18 223.327 166.861 224 165.774C224 165.774 223.072 163.489 221.235 165.774C221.248 165.774 213.881 168.299 223.206 173.693Z" fill="black"/>
<path d="M221.689 172.379C221.689 172.379 218.079 174.191 217.759 186.122C217.439 198.052 213.119 197.932 213.119 197.932" stroke="white" stroke-linecap="round" stroke-linejoin="round"/>
<path d="M225.918 173.186C225.918 173.186 224.139 176.94 225.278 184.241C226.417 191.541 225.771 199.813 222.078 202.493" stroke="white" stroke-linecap="round" stroke-linejoin="round"/>
<path d="M203.519 161.651C203.524 161.752 203.513 161.853 203.486 161.947C203.458 162.041 203.416 162.126 203.362 162.195C203.307 162.265 203.242 162.318 203.171 162.35C203.1 162.382 203.024 162.393 202.949 162.381L197.112 161.771C196.946 161.759 196.788 161.664 196.67 161.506C196.552 161.347 196.482 161.136 196.472 160.912L196.069 145.323C196.061 145.215 196.07 145.105 196.095 145.002C196.121 144.899 196.162 144.803 196.216 144.723C196.27 144.642 196.336 144.577 196.41 144.532C196.484 144.488 196.564 144.465 196.645 144.464L202.476 145.065C202.643 145.111 202.793 145.231 202.903 145.405C203.014 145.58 203.077 145.799 203.084 146.027L203.519 161.651Z" fill="#263238"/>
<path opacity="0.5" d="M202.477 145.898L202.892 161.634C202.904 161.726 202.9 161.821 202.879 161.91C202.858 162 202.822 162.081 202.774 162.148C202.725 162.215 202.665 162.266 202.599 162.296C202.533 162.326 202.462 162.334 202.393 162.321L197.446 161.806C197.113 161.806 196.524 161.462 196.512 161.015L196.096 145.228C196.096 144.79 196.672 144.498 197.005 144.533L201.945 145.048C202.098 145.072 202.238 145.173 202.337 145.331C202.436 145.489 202.486 145.692 202.477 145.898Z" fill="white"/>
<path d="M209.452 173.504L207.238 166.564C207.238 166.564 206.514 157.253 206.162 156.257C205.81 155.261 200.172 155.63 199.558 155.57C198.943 155.51 199.039 164.786 199.679 165.774C200.319 166.761 202.572 167.535 202.572 167.535L205.401 177.464L209.452 173.504Z" fill="#EEC1BB"/>
<path d="M204.306 177.447L203.525 173.186L209.452 169.227L210.348 173.341L204.306 177.447Z" fill="#263238"/>
<path d="M203.52 177.447C204.205 174.999 207.245 171.262 210.342 172.379C213.44 173.495 220.48 203.42 222.291 204.855C224.102 206.289 236.621 180.521 240.07 178.658C243.52 176.794 246.15 178.769 246.272 189.377C246.393 199.985 233.536 229.291 222.528 226.878C211.52 224.464 200.64 187.839 203.52 177.447Z" fill="#263238"/>
<path opacity="0.2" d="M203.52 177.447C204.205 174.999 207.245 171.262 210.342 172.379C213.44 173.495 220.48 203.42 222.291 204.855C224.102 206.289 236.621 180.521 240.07 178.658C243.52 176.794 246.15 178.769 246.272 189.377C246.393 199.985 233.536 229.291 222.528 226.878C211.52 224.464 200.64 187.839 203.52 177.447Z" fill="black"/>
<path opacity="0.3" d="M204.415 253.384C203.201 253.467 201.983 253.39 200.78 253.152C182.258 249.716 156.62 212.224 155.378 210.206C154.495 208.771 141.823 209.261 133.465 209.751C141.049 202.879 148.063 197.236 151.046 196.996C158.38 196.42 200.742 238.499 206.802 244.571C206.975 244.975 206.719 245.37 207.359 245.757C208.639 250.206 208.319 253.118 204.415 253.384Z" fill="black"/>
<path d="M231.909 240.302C231.909 240.302 224.958 259.903 203.198 255.531C185.918 252.052 163.173 206.375 161.01 204.52C157.592 201.574 119.269 202.012 119.269 202.012L117.035 189.918C117.035 189.918 162.475 178.752 169.675 183.193C173.624 185.615 210.078 227.857 210.078 227.857L231.909 240.302Z" fill="#1F75FE"/>
<path opacity="0.6" d="M231.909 240.302C231.909 240.302 224.958 259.903 203.198 255.531C185.918 252.052 163.173 206.375 161.01 204.52C157.592 201.574 119.269 202.012 119.269 202.012L117.035 189.918C117.035 189.918 162.475 178.752 169.675 183.193C173.624 185.615 210.078 227.857 210.078 227.857L231.909 240.302Z" fill="white"/>
<path d="M107.263 202.553L107.18 195.647L119.045 192.237L119.122 199.134L107.263 202.553Z" fill="#EEC1BB"/>
<path opacity="0.2" d="M119.123 199.134L119.04 192.237L112.256 194.187L112.589 201.024L119.123 199.134Z" fill="black"/>
<path d="M117.124 204.107L114.68 189.291L119.313 187.023L121.758 203.352L117.124 204.107Z" fill="#1F75FE"/>
<path opacity="0.2" d="M117.124 204.107L114.68 189.291L119.313 187.023L121.758 203.352L117.124 204.107Z" fill="white"/>
<path d="M107.518 196.283L107.154 196.137C107.67 195.52 108.067 194.745 108.312 193.878C108.312 193.629 108.139 193.242 108.018 193.019C107.944 192.891 107.844 192.796 107.73 192.745C107.616 192.695 107.493 192.691 107.378 192.735C107.004 193.055 106.727 193.542 106.597 194.11C106.591 193.436 106.408 192.788 106.078 192.28C106.013 192.22 105.938 192.183 105.86 192.173C105.782 192.162 105.703 192.179 105.63 192.22C105.512 192.259 105.405 192.344 105.321 192.462C105.237 192.581 105.18 192.729 105.157 192.89C105.148 193.349 105.266 193.796 105.49 194.144C105.758 194.641 106.065 195.098 106.405 195.51C106.405 195.51 106.405 195.51 106.405 195.561H106.45C106.45 195.561 106.597 195.776 106.616 195.767C106.635 195.759 107.102 196.119 107.109 196.111L107.518 196.283ZM107.403 193.019C107.467 192.976 107.557 192.959 107.672 193.139L107.71 193.199C107.737 193.251 107.756 193.31 107.765 193.372C107.774 193.434 107.773 193.498 107.762 193.56C107.698 194.127 107.045 194.788 106.635 195.149V194.977C106.711 194.223 106.983 193.53 107.403 193.019ZM105.406 192.976C105.425 192.876 105.462 192.785 105.515 192.711C105.568 192.638 105.634 192.584 105.707 192.555C105.74 192.53 105.778 192.517 105.816 192.517C105.854 192.517 105.891 192.53 105.925 192.555C106.226 192.83 106.354 194.101 106.379 195.046C105.707 194.195 105.349 193.422 105.406 192.976Z" fill="#1F75FE"/>
<path d="M107.264 195.535L110.528 201.926C110.557 201.977 110.578 202.036 110.59 202.098C110.603 202.16 110.605 202.225 110.599 202.289C110.592 202.353 110.576 202.414 110.552 202.47C110.528 202.525 110.496 202.574 110.457 202.613L106.848 206.392C106.749 206.486 106.638 206.552 106.52 206.588C106.402 206.624 106.28 206.628 106.161 206.6C106.042 206.572 105.928 206.512 105.827 206.425C105.725 206.338 105.637 206.225 105.568 206.092C104.461 203.833 104.013 202.656 102.592 199.856C101.715 198.138 99.859 194.822 98.9374 192.211C98.0158 189.6 99.9614 188.441 100.525 189.437C101.869 191.799 104.749 194.041 106.509 194.78C106.815 194.914 107.08 195.18 107.264 195.535Z" fill="#263238"/>
<path d="M198.438 140.375C198.616 140.129 198.83 139.934 199.066 139.801C199.301 139.668 199.555 139.599 199.81 139.599C200.066 139.599 200.319 139.668 200.555 139.801C200.791 139.934 201.004 140.129 201.183 140.375" stroke="#1F75FE" stroke-linecap="round" stroke-linejoin="round"/>
<path d="M197.434 139.017C198.066 138.172 198.922 137.697 199.814 137.697C200.707 137.697 201.563 138.172 202.195 139.017" stroke="#1F75FE" stroke-width="1.05659" stroke-linecap="round" stroke-linejoin="round"/>
<path d="M196.48 137.763C197.361 136.584 198.555 135.921 199.799 135.921C201.043 135.921 202.237 136.584 203.117 137.763" stroke="#1F75FE" stroke-linecap="round" stroke-linejoin="round"/>
<path d="M200.359 142.127C200.36 142.274 200.328 142.418 200.268 142.54C200.209 142.663 200.123 142.759 200.022 142.816C199.921 142.873 199.81 142.888 199.702 142.86C199.595 142.832 199.496 142.761 199.419 142.658C199.342 142.554 199.289 142.421 199.268 142.277C199.247 142.133 199.258 141.984 199.301 141.849C199.343 141.713 199.415 141.598 199.506 141.518C199.598 141.437 199.705 141.395 199.815 141.397C199.959 141.397 200.097 141.474 200.199 141.61C200.301 141.747 200.359 141.933 200.359 142.127Z" fill="#1F75FE"/>
<path d="M179.469 66.0682H109.92C107.736 66.0682 105.965 68.4448 105.965 71.3764V124.819C105.965 127.75 107.736 130.127 109.92 130.127H179.469C181.653 130.127 183.424 127.75 183.424 124.819V71.3764C183.424 68.4448 181.653 66.0682 179.469 66.0682Z" fill="#1F75FE"/>
<path d="M179.296 66.9357H110.099C108.176 66.9357 106.617 69.0276 106.617 71.6082V124.578C106.617 127.159 108.176 129.25 110.099 129.25H179.296C181.218 129.25 182.777 127.159 182.777 124.578V71.6082C182.777 69.0276 181.218 66.9357 179.296 66.9357Z" fill="#1F75FE"/>
<path opacity="0.6" d="M179.296 66.9357H110.099C108.176 66.9357 106.617 69.0276 106.617 71.6082V124.578C106.617 127.159 108.176 129.25 110.099 129.25H179.296C181.218 129.25 182.777 127.159 182.777 124.578V71.6082C182.777 69.0276 181.218 66.9357 179.296 66.9357Z" fill="white"/>
<path opacity="0.2" d="M179.296 66.9357H110.099C108.176 66.9357 106.617 69.0276 106.617 71.6082V121.142C106.617 123.723 108.176 125.815 110.099 125.815H179.296C181.218 125.815 182.777 123.723 182.777 121.142V71.6082C182.777 69.0276 181.218 66.9357 179.296 66.9357Z" fill="white"/>
<path d="M171.534 72.115H112.737C112.146 72.115 111.668 72.7572 111.668 73.5494V80.4723C111.668 81.2645 112.146 81.9067 112.737 81.9067H171.534C172.124 81.9067 172.602 81.2645 172.602 80.4723V73.5494C172.602 72.7572 172.124 72.115 171.534 72.115Z" fill="white"/>
<path d="M116.947 81H116.205L118.35 75.1584H119.081L121.226 81H120.484L118.738 76.0825H118.693L116.947 81ZM117.221 78.7181H120.21V79.3456H117.221V78.7181ZM116.707 85.1584H117.552L119.537 90.0074H119.605L121.591 85.1584H122.435V91H121.773V86.5617H121.716L119.891 91H119.252L117.426 86.5617H117.369V91H116.707V85.1584ZM116.707 101V95.1584H118.681C119.139 95.1584 119.514 95.2411 119.805 95.4065C120.098 95.5701 120.315 95.7916 120.455 96.0711C120.596 96.3507 120.666 96.6625 120.666 97.0067C120.666 97.3509 120.596 97.6637 120.455 97.9451C120.317 98.2266 120.102 98.4509 119.811 98.6183C119.52 98.7837 119.147 98.8664 118.693 98.8664H117.278V98.2389H118.67C118.984 98.2389 119.236 98.1847 119.426 98.0763C119.616 97.9679 119.754 97.8215 119.839 97.6371C119.927 97.4507 119.97 97.2406 119.97 97.0067C119.97 96.7728 119.927 96.5636 119.839 96.3792C119.754 96.1947 119.615 96.0502 119.423 95.9456C119.231 95.8391 118.976 95.7859 118.658 95.7859H117.415V101H116.707Z" fill="#1F75FE"/>
<path opacity="0.3" d="M171.534 72.115H112.737C112.146 72.115 111.668 72.7572 111.668 73.5494V80.4723C111.668 81.2645 112.146 81.9067 112.737 81.9067H171.534C172.124 81.9067 172.602 81.2645 172.602 80.4723V73.5494C172.602 72.7572 172.124 72.115 171.534 72.115Z" fill="white"/>
<path d="M171.534 84.4491H112.737C112.146 84.4491 111.668 85.0913 111.668 85.8835V92.8064C111.668 93.5986 112.146 94.2408 112.737 94.2408H171.534C172.124 94.2408 172.602 93.5986 172.602 92.8064V85.8835C172.602 85.0913 172.124 84.4491 171.534 84.4491Z" fill="white"/>
<path d="M114.947 94H114.205L116.35 88.1584H117.081L119.226 94H118.484L116.738 89.0825H116.693L114.947 94ZM115.221 91.7181H118.21V92.3456H115.221V91.7181ZM120.843 88.1584V94H120.135V88.1584H120.843ZM122.261 94V88.1584H124.235C124.691 88.1584 125.066 88.2363 125.359 88.3923C125.652 88.5463 125.868 88.7583 126.009 89.0283C126.15 89.2984 126.22 89.6055 126.22 89.9496C126.22 90.2938 126.15 90.599 126.009 90.8653C125.868 91.1315 125.653 91.3406 125.362 91.4928C125.071 91.643 124.699 91.7181 124.246 91.7181H122.649V91.0792H124.224C124.535 91.0792 124.786 91.0335 124.977 90.9423C125.169 90.851 125.307 90.7217 125.393 90.5543C125.481 90.3851 125.524 90.1835 125.524 89.9496C125.524 89.7158 125.481 89.5113 125.393 89.3364C125.306 89.1614 125.166 89.0264 124.974 88.9314C124.782 88.8344 124.528 88.7859 124.212 88.7859H122.969V94H122.261ZM125.011 91.3758L126.448 94H125.627L124.212 91.3758H125.011ZM119.408 99.9839H118.701C118.659 99.7804 118.586 99.6017 118.481 99.4476C118.378 99.2936 118.253 99.1643 118.105 99.0597C117.958 98.9532 117.796 98.8734 117.617 98.8201C117.438 98.7669 117.252 98.7402 117.058 98.7402C116.704 98.7402 116.384 98.8296 116.096 99.0084C115.811 99.1871 115.584 99.4505 115.415 99.7985C115.247 100.146 115.164 100.573 115.164 101.079C115.164 101.585 115.247 102.012 115.415 102.36C115.584 102.708 115.811 102.971 116.096 103.15C116.384 103.329 116.704 103.418 117.058 103.418C117.252 103.418 117.438 103.391 117.617 103.338C117.796 103.285 117.958 103.206 118.105 103.102C118.253 102.995 118.378 102.865 118.481 102.711C118.586 102.555 118.659 102.376 118.701 102.174H119.408C119.355 102.473 119.258 102.74 119.117 102.976C118.976 103.212 118.801 103.412 118.592 103.578C118.383 103.741 118.148 103.866 117.888 103.952C117.629 104.037 117.352 104.08 117.058 104.08C116.56 104.08 116.116 103.958 115.729 103.715C115.341 103.471 115.035 103.125 114.813 102.677C114.59 102.228 114.479 101.695 114.479 101.079C114.479 100.463 114.59 99.9306 114.813 99.4819C115.035 99.0331 115.341 98.687 115.729 98.4436C116.116 98.2002 116.56 98.0785 117.058 98.0785C117.352 98.0785 117.629 98.1213 117.888 98.2069C118.148 98.2924 118.383 98.4179 118.592 98.5834C118.801 98.7469 118.976 98.9466 119.117 99.1824C119.258 99.4163 119.355 99.6834 119.408 99.9839ZM125.48 101.079C125.48 101.695 125.369 102.228 125.146 102.677C124.924 103.125 124.619 103.471 124.231 103.715C123.843 103.958 123.4 104.08 122.902 104.08C122.403 104.08 121.96 103.958 121.572 103.715C121.184 103.471 120.879 103.125 120.657 102.677C120.434 102.228 120.323 101.695 120.323 101.079C120.323 100.463 120.434 99.9306 120.657 99.4819C120.879 99.0331 121.184 98.687 121.572 98.4436C121.96 98.2002 122.403 98.0785 122.902 98.0785C123.4 98.0785 123.843 98.2002 124.231 98.4436C124.619 98.687 124.924 99.0331 125.146 99.4819C125.369 99.9306 125.48 100.463 125.48 101.079ZM124.795 101.079C124.795 100.573 124.711 100.146 124.542 99.7985C124.374 99.4505 124.147 99.1871 123.86 99.0084C123.575 98.8296 123.255 98.7402 122.902 98.7402C122.548 98.7402 122.227 98.8296 121.94 99.0084C121.655 99.1871 121.428 99.4505 121.259 99.7985C121.091 100.146 121.008 100.573 121.008 101.079C121.008 101.585 121.091 102.012 121.259 102.36C121.428 102.708 121.655 102.971 121.94 103.15C122.227 103.329 122.548 103.418 122.902 103.418C123.255 103.418 123.575 103.329 123.86 103.15C124.147 102.971 124.374 102.708 124.542 102.36C124.711 102.012 124.795 101.585 124.795 101.079ZM131.302 98.1584V104H130.617L127.434 99.4134H127.377V104H126.669V98.1584H127.354L130.549 102.756H130.606V98.1584H131.302ZM134.52 104H132.717V98.1584H134.6C135.166 98.1584 135.651 98.2753 136.054 98.5092C136.458 98.7412 136.767 99.0749 136.981 99.5104C137.196 99.9439 137.304 100.463 137.304 101.068C137.304 101.676 137.195 102.2 136.979 102.639C136.762 103.077 136.446 103.413 136.032 103.649C135.617 103.883 135.113 104 134.52 104ZM133.425 103.372H134.474C134.957 103.372 135.358 103.279 135.675 103.093C135.993 102.907 136.229 102.641 136.385 102.297C136.541 101.953 136.619 101.543 136.619 101.068C136.619 100.596 136.542 100.19 136.388 99.8498C136.234 99.5075 136.004 99.2451 135.698 99.0626C135.392 98.8781 135.01 98.7859 134.554 98.7859H133.425V103.372ZM139.198 98.1584V104H138.49V98.1584H139.198ZM140.297 98.7859V98.1584H144.678V98.7859H142.841V104H142.134V98.7859H140.297ZM146.477 98.1584V104H145.77V98.1584H146.477ZM149.584 104.091C149.188 104.091 148.841 103.997 148.543 103.809C148.246 103.621 148.014 103.357 147.847 103.019C147.681 102.68 147.599 102.285 147.599 101.832C147.599 101.376 147.681 100.977 147.847 100.637C148.014 100.297 148.246 100.032 148.543 99.8441C148.841 99.6559 149.188 99.5617 149.584 99.5617C149.979 99.5617 150.326 99.6559 150.622 99.8441C150.921 100.032 151.153 100.297 151.318 100.637C151.486 100.977 151.569 101.376 151.569 101.832C151.569 102.285 151.486 102.68 151.318 103.019C151.153 103.357 150.921 103.621 150.622 103.809C150.326 103.997 149.979 104.091 149.584 104.091ZM149.584 103.487C149.884 103.487 150.132 103.41 150.326 103.256C150.52 103.102 150.663 102.899 150.756 102.648C150.849 102.397 150.896 102.125 150.896 101.832C150.896 101.539 150.849 101.266 150.756 101.014C150.663 100.761 150.52 100.556 150.326 100.4C150.132 100.244 149.884 100.166 149.584 100.166C149.283 100.166 149.036 100.244 148.842 100.4C148.648 100.556 148.505 100.761 148.412 101.014C148.318 101.266 148.272 101.539 148.272 101.832C148.272 102.125 148.318 102.397 148.412 102.648C148.505 102.899 148.648 103.102 148.842 103.256C149.036 103.41 149.283 103.487 149.584 103.487ZM119.34 108.158V114H118.655L115.472 109.413H115.415V114H114.707V108.158H115.392L118.587 112.756H118.644V108.158H119.34ZM120.755 114V108.158H124.281V108.786H121.462V110.76H124.098V111.387H121.462V113.372H124.326V114H120.755ZM125.556 114V108.158H127.529C127.986 108.158 128.36 108.236 128.653 108.392C128.946 108.546 129.163 108.758 129.304 109.028C129.444 109.298 129.515 109.605 129.515 109.95C129.515 110.294 129.444 110.599 129.304 110.865C129.163 111.131 128.947 111.341 128.656 111.493C128.365 111.643 127.993 111.718 127.541 111.718H125.944V111.079H127.518C127.83 111.079 128.081 111.034 128.271 110.942C128.463 110.851 128.602 110.722 128.688 110.554C128.775 110.385 128.819 110.184 128.819 109.95C128.819 109.716 128.775 109.511 128.688 109.336C128.6 109.161 128.46 109.026 128.268 108.931C128.076 108.834 127.822 108.786 127.507 108.786H126.263V114H125.556ZM128.305 111.376L129.743 114H128.921L127.507 111.376H128.305Z" fill="#1F75FE"/>
<path opacity="0.3" d="M171.534 84.4491H112.737C112.146 84.4491 111.668 85.0913 111.668 85.8835V92.8064C111.668 93.5986 112.146 94.2408 112.737 94.2408H171.534C172.124 94.2408 172.602 93.5986 172.602 92.8064V85.8835C172.602 85.0913 172.124 84.4491 171.534 84.4491Z" fill="white"/>
<path d="M171.534 96.7917H112.737C112.146 96.7917 111.668 97.4339 111.668 98.2261V105.149C111.668 105.941 112.146 106.583 112.737 106.583H171.534C172.124 106.583 172.602 105.941 172.602 105.149V98.2261C172.602 97.4339 172.124 96.7917 171.534 96.7917Z" fill="white"/>
<path d="M114.707 100.158H115.552L117.537 105.007H117.605L119.591 100.158H120.435V106H119.773V101.562H119.716L117.891 106H117.252L115.426 101.562H115.369V106H114.707V100.158ZM125.687 100.158H126.394V104.026C126.394 104.425 126.3 104.782 126.112 105.096C125.925 105.408 125.662 105.654 125.322 105.835C124.981 106.013 124.582 106.103 124.124 106.103C123.665 106.103 123.266 106.013 122.926 105.835C122.585 105.654 122.321 105.408 122.133 105.096C121.946 104.782 121.853 104.425 121.853 104.026V100.158H122.561V103.969C122.561 104.254 122.623 104.508 122.749 104.731C122.874 104.951 123.053 105.125 123.285 105.253C123.519 105.378 123.799 105.441 124.124 105.441C124.449 105.441 124.728 105.378 124.962 105.253C125.196 105.125 125.375 104.951 125.499 104.731C125.624 104.508 125.687 104.254 125.687 103.969V100.158ZM117.902 111.619C117.868 111.33 117.729 111.105 117.486 110.946C117.242 110.786 116.944 110.706 116.59 110.706C116.331 110.706 116.105 110.748 115.911 110.832C115.719 110.915 115.569 111.03 115.46 111.177C115.354 111.323 115.301 111.489 115.301 111.676C115.301 111.832 115.338 111.966 115.412 112.078C115.488 112.188 115.585 112.281 115.703 112.355C115.821 112.427 115.944 112.487 116.074 112.534C116.203 112.58 116.322 112.617 116.43 112.646L117.024 112.805C117.176 112.845 117.345 112.9 117.531 112.971C117.719 113.041 117.899 113.137 118.07 113.259C118.243 113.379 118.386 113.533 118.498 113.721C118.61 113.909 118.666 114.14 118.666 114.414C118.666 114.73 118.584 115.015 118.418 115.27C118.255 115.525 118.015 115.727 117.7 115.877C117.386 116.028 117.004 116.103 116.556 116.103C116.137 116.103 115.775 116.035 115.469 115.9C115.165 115.765 114.925 115.577 114.75 115.335C114.577 115.094 114.479 114.813 114.456 114.494H115.187C115.206 114.715 115.28 114.897 115.409 115.042C115.54 115.184 115.706 115.291 115.905 115.361C116.107 115.43 116.324 115.464 116.556 115.464C116.826 115.464 117.068 115.42 117.283 115.333C117.498 115.243 117.668 115.12 117.794 114.962C117.919 114.802 117.982 114.616 117.982 114.403C117.982 114.209 117.928 114.051 117.819 113.929C117.711 113.807 117.568 113.709 117.391 113.633C117.215 113.556 117.024 113.49 116.818 113.433L116.099 113.228C115.643 113.096 115.282 112.909 115.015 112.666C114.749 112.422 114.616 112.104 114.616 111.71C114.616 111.383 114.705 111.098 114.881 110.854C115.06 110.609 115.3 110.419 115.6 110.284C115.903 110.147 116.24 110.078 116.613 110.078C116.989 110.078 117.324 110.146 117.617 110.281C117.91 110.414 118.142 110.597 118.313 110.829C118.486 111.061 118.577 111.324 118.587 111.619H117.902ZM120.537 110.158V116H119.83V110.158H120.537ZM126.656 111.984H125.949C125.907 111.78 125.833 111.602 125.729 111.448C125.626 111.294 125.501 111.164 125.352 111.06C125.206 110.953 125.043 110.873 124.865 110.82C124.686 110.767 124.5 110.74 124.306 110.74C123.952 110.74 123.631 110.83 123.344 111.008C123.059 111.187 122.832 111.45 122.663 111.798C122.495 112.146 122.412 112.573 122.412 113.079C122.412 113.585 122.495 114.012 122.663 114.36C122.832 114.708 123.059 114.971 123.344 115.15C123.631 115.329 123.952 115.418 124.306 115.418C124.5 115.418 124.686 115.391 124.865 115.338C125.043 115.285 125.206 115.206 125.352 115.102C125.501 114.995 125.626 114.865 125.729 114.711C125.833 114.555 125.907 114.376 125.949 114.174H126.656C126.603 114.473 126.506 114.74 126.365 114.976C126.224 115.212 126.049 115.412 125.84 115.578C125.631 115.741 125.396 115.866 125.136 115.952C124.877 116.037 124.6 116.08 124.306 116.08C123.807 116.08 123.364 115.958 122.976 115.715C122.588 115.471 122.283 115.125 122.061 114.677C121.838 114.228 121.727 113.695 121.727 113.079C121.727 112.463 121.838 111.931 122.061 111.482C122.283 111.033 122.588 110.687 122.976 110.444C123.364 110.2 123.807 110.078 124.306 110.078C124.6 110.078 124.877 110.121 125.136 110.207C125.396 110.292 125.631 110.418 125.84 110.583C126.049 110.747 126.224 110.947 126.365 111.182C126.506 111.416 126.603 111.683 126.656 111.984Z" fill="#1F75FE"/>
<path opacity="0.3" d="M171.534 96.7917H112.737C112.146 96.7917 111.668 97.4339 111.668 98.2261V105.149C111.668 105.941 112.146 106.583 112.737 106.583H171.534C172.124 106.583 172.602 105.941 172.602 105.149V98.2261C172.602 97.4339 172.124 96.7917 171.534 96.7917Z" fill="white"/>
<path d="M171.534 109.126H112.737C112.146 109.126 111.668 109.768 111.668 110.56V117.483C111.668 118.275 112.146 118.918 112.737 118.918H171.534C172.124 118.918 172.602 118.275 172.602 117.483V110.56C172.602 109.768 172.124 109.126 171.534 109.126Z" fill="white"/>
<path d="M114.388 112.786V112.158H118.769V112.786H116.932V118H116.225V112.786H114.388ZM114.947 122.158L116.681 127.076H116.75L118.484 122.158H119.226L117.081 128H116.35L114.205 122.158H114.947Z" fill="#1F75FE"/>
<path opacity="0.3" d="M171.534 109.126H112.737C112.146 109.126 111.668 109.768 111.668 110.56V117.483C111.668 118.275 112.146 118.918 112.737 118.918H171.534C172.124 118.918 172.602 118.275 172.602 117.483V110.56C172.602 109.768 172.124 109.126 171.534 109.126Z" fill="white"/>
<path d="M170.098 73.601H160.812C160.254 73.601 159.801 74.2085 159.801 74.9581V79.0551C159.801 79.8046 160.254 80.4122 160.812 80.4122H170.098C170.657 80.4122 171.11 79.8046 171.11 79.0551V74.9581C171.11 74.2085 170.657 73.601 170.098 73.601Z" fill="#263238"/>
<path opacity="0.5" d="M163.692 73.601H160.812C160.254 73.601 159.801 74.2085 159.801 74.9581V79.0551C159.801 79.8046 160.254 80.4122 160.812 80.4122H163.692C164.25 80.4122 164.703 79.8046 164.703 79.0551V74.9581C164.703 74.2085 164.25 73.601 163.692 73.601Z" fill="white"/>
<path opacity="0.5" d="M170.098 73.601H160.812C160.254 73.601 159.801 74.2085 159.801 74.9581V79.0551C159.801 79.8046 160.254 80.4122 160.812 80.4122H170.098C170.657 80.4122 171.11 79.8046 171.11 79.0551V74.9581C171.11 74.2085 170.657 73.601 170.098 73.601Z" fill="white"/>
<path d="M170.098 110.56H160.812C160.254 110.56 159.801 111.168 159.801 111.917V116.014C159.801 116.764 160.254 117.372 160.812 117.372H170.098C170.657 117.372 171.11 116.764 171.11 116.014V111.917C171.11 111.168 170.657 110.56 170.098 110.56Z" fill="#263238"/>
<path opacity="0.5" d="M163.692 110.56H160.812C160.254 110.56 159.801 111.168 159.801 111.917V116.014C159.801 116.764 160.254 117.372 160.812 117.372H163.692C164.25 117.372 164.703 116.764 164.703 116.014V111.917C164.703 111.168 164.25 110.56 163.692 110.56Z" fill="white"/>
<path opacity="0.5" d="M170.098 110.56H160.812C160.254 110.56 159.801 111.168 159.801 111.917V116.014C159.801 116.764 160.254 117.372 160.812 117.372H170.098C170.657 117.372 171.11 116.764 171.11 116.014V111.917C171.11 111.168 170.657 110.56 170.098 110.56Z" fill="white"/>
<path d="M170.098 98.2347H160.812C160.254 98.2347 159.801 98.8423 159.801 99.5918V103.689C159.801 104.438 160.254 105.046 160.812 105.046H170.098C170.657 105.046 171.11 104.438 171.11 103.689V99.5918C171.11 98.8423 170.657 98.2347 170.098 98.2347Z" fill="#1F75FE"/>
<path opacity="0.5" d="M170.098 98.2347H167.218C166.66 98.2347 166.207 98.8423 166.207 99.5918V103.689C166.207 104.438 166.66 105.046 167.218 105.046H170.098C170.657 105.046 171.109 104.438 171.109 103.689V99.5918C171.109 98.8423 170.657 98.2347 170.098 98.2347Z" fill="white"/>
<path d="M170.098 85.9178H160.812C160.254 85.9178 159.801 86.5254 159.801 87.2749V91.372C159.801 92.1215 160.254 92.7291 160.812 92.7291H170.098C170.657 92.7291 171.11 92.1215 171.11 91.372V87.2749C171.11 86.5254 170.657 85.9178 170.098 85.9178Z" fill="#1F75FE"/>
<path opacity="0.5" d="M170.098 85.9178H167.218C166.66 85.9178 166.207 86.5254 166.207 87.2749V91.372C166.207 92.1215 166.66 92.7291 167.218 92.7291H170.098C170.657 92.7291 171.109 92.1215 171.109 91.372V87.2749C171.109 86.5254 170.657 85.9178 170.098 85.9178Z" fill="white"/>
<path d="M172.602 129.053V122.594C172.603 122.406 172.576 122.22 172.523 122.046C172.47 121.872 172.392 121.713 172.293 121.58C172.195 121.447 172.077 121.341 171.948 121.269C171.819 121.197 171.68 121.159 171.54 121.159H112.737C112.453 121.159 112.181 121.311 111.981 121.58C111.781 121.849 111.668 122.213 111.668 122.594V129.053H172.602Z" fill="white"/>
<path d="M160.14 129.053H170.77C170.877 128.927 170.962 128.772 171.02 128.599C171.079 128.426 171.109 128.238 171.11 128.048V123.942C171.11 123.764 171.083 123.588 171.032 123.424C170.982 123.26 170.907 123.111 170.813 122.986C170.719 122.86 170.608 122.761 170.485 122.694C170.362 122.627 170.231 122.593 170.098 122.594H160.812C160.679 122.593 160.548 122.627 160.425 122.694C160.303 122.761 160.191 122.86 160.097 122.986C160.003 123.111 159.929 123.26 159.878 123.424C159.827 123.588 159.801 123.764 159.801 123.942V128.048C159.801 128.238 159.832 128.426 159.89 128.599C159.949 128.772 160.034 128.927 160.14 129.053Z" fill="#263238"/>
<path opacity="0.5" d="M160.14 129.053H164.37C164.476 128.926 164.56 128.772 164.617 128.598C164.675 128.425 164.704 128.238 164.703 128.048V123.942C164.703 123.764 164.677 123.588 164.626 123.424C164.575 123.26 164.501 123.111 164.407 122.986C164.313 122.86 164.201 122.761 164.078 122.694C163.956 122.627 163.824 122.593 163.692 122.594H160.812C160.679 122.593 160.548 122.627 160.425 122.694C160.303 122.761 160.191 122.86 160.097 122.986C160.003 123.111 159.929 123.26 159.878 123.424C159.827 123.588 159.801 123.764 159.801 123.942V128.048C159.801 128.238 159.832 128.426 159.89 128.599C159.949 128.772 160.034 128.927 160.14 129.053Z" fill="white"/>
<path opacity="0.5" d="M160.14 129.053H170.77C170.877 128.927 170.962 128.772 171.02 128.599C171.079 128.426 171.109 128.238 171.11 128.048V123.942C171.11 123.764 171.083 123.588 171.032 123.424C170.982 123.26 170.907 123.111 170.813 122.986C170.719 122.86 170.608 122.761 170.485 122.694C170.362 122.627 170.231 122.593 170.098 122.594H160.812C160.679 122.593 160.548 122.627 160.425 122.694C160.303 122.761 160.191 122.86 160.097 122.986C160.003 123.111 159.929 123.26 159.878 123.424C159.827 123.588 159.801 123.764 159.801 123.942V128.048C159.801 128.238 159.832 128.426 159.89 128.599C159.949 128.772 160.034 128.927 160.14 129.053Z" fill="white"/>
<path opacity="0.2" d="M177.043 126.055C176.681 126.055 176.335 125.863 176.079 125.519C175.823 125.176 175.68 124.711 175.68 124.226V73.9359C175.68 73.6961 175.715 73.4586 175.784 73.2371C175.852 73.0156 175.953 72.8145 176.079 72.6453C176.206 72.4761 176.356 72.3421 176.522 72.2511C176.687 72.1601 176.864 72.1139 177.043 72.115C177.403 72.115 177.748 72.3068 178.002 72.6483C178.257 72.9898 178.4 73.453 178.4 73.9359V124.226C178.401 124.466 178.366 124.703 178.298 124.925C178.23 125.147 178.131 125.349 178.005 125.519C177.878 125.689 177.729 125.824 177.564 125.916C177.399 126.008 177.222 126.055 177.043 126.055Z" fill="black"/>
<path d="M177.043 91.6727C176.864 91.6738 176.687 91.6275 176.522 91.5365C176.356 91.4455 176.206 91.3116 176.079 91.1424C175.953 90.9732 175.852 90.772 175.784 90.5506C175.715 90.3291 175.68 90.0916 175.68 89.8517V73.9359C175.68 73.6961 175.715 73.4586 175.784 73.2371C175.852 73.0156 175.953 72.8145 176.079 72.6453C176.206 72.4761 176.356 72.3421 176.522 72.2511C176.687 72.1601 176.864 72.1139 177.043 72.115C177.403 72.115 177.748 72.3068 178.002 72.6483C178.257 72.9898 178.4 73.453 178.4 73.9359V89.8517C178.4 90.3347 178.257 90.7978 178.002 91.1393C177.748 91.4808 177.403 91.6727 177.043 91.6727Z" fill="white"/>
<path d="M143.68 129.697V132.274" stroke="#1F75FE" stroke-linecap="round" stroke-linejoin="round"/>
<path d="M143.68 133.992V146.017" stroke="#1F75FE" stroke-linecap="round" stroke-linejoin="round" stroke-dasharray="5 2"/>
<path d="M143.68 146.876V149.023H145.28" stroke="#1F75FE" stroke-linecap="round" stroke-linejoin="round"/>
<path d="M146.561 149.023H190.721" stroke="#1F75FE" stroke-linecap="round" stroke-linejoin="round" stroke-dasharray="5 2"/>
<path d="M191.359 149.023H193.279" stroke="#1F75FE" stroke-linecap="round" stroke-linejoin="round"/>
<path d="M194.226 150.011C194.633 150.011 194.962 149.568 194.962 149.023C194.962 148.477 194.633 148.035 194.226 148.035C193.82 148.035 193.49 148.477 193.49 149.023C193.49 149.568 193.82 150.011 194.226 150.011Z" fill="#1F75FE"/>
</svg>
